<?xml version="1.0" encoding="utf-8"?>
<!-- Generator: Adobe Illustrator 19.2.0, SVG Export Plug-In . SVG Version: 6.00 Build 0)  -->
<svg version="1.1" id="Capa_1" xmlns="http://www.w3.org/2000/svg" xmlns:xlink="http://www.w3.org/1999/xlink" x="0px" y="0px"
	 viewBox="0 0 2800 1555" enable-background="new 0 0 2800 1555" xml:space="preserve">
<path fill="#53456A" d="M2215.2,162.2c0.6,1.1,1.9,1.1,2.8,1.7c4.5,2.6,6.5,6.5,5.9,11.6c-0.6,5-3.5,8.1-8.2,9.6
	c-0.5,0.1-0.9,0.2-1.4,0.3c-1.3,0.2-1.9,0.9-2.2,2.2c-0.7,3.1-1.4,6.2-2.1,9.4c-1.7,7.6-3.4,15.3-5.1,22.9c-0.2,0.9-0.4,1.9-0.5,2.8
	c-0.1,1.1,0.4,1.8,1.5,2c1.1,0.2,2.2,0.5,3.3,0.8c6.2,1.4,12.5,2.7,18.7,4.1c1.1,0.2,2.2,0.6,3.3,0.8c0.9,0.2,1.2,1,1.1,1.8
	c-0.1,0.9-0.3,1.9-0.5,2.8c-1.3,5.9-2.6,11.9-3.9,17.8c-0.2,0.9-0.4,1.9-0.5,2.8c-0.1,0.9,0.3,1.5,1.1,1.9c0.4,0.2,0.9,0.3,1.4,0.5
	c8,1.7,15.9,3.5,23.9,5.2c0.3,0.1,0.6,0.1,0.9,0.2c1.1,0.3,1.9-0.1,2.3-1.1c0.5-1.2,0.9-2.4,1.3-3.6c1.8-4.5,4.2-8.6,7.8-12
	c2.9-2.8,6.3-5,10.4-5.7c7.9-1.4,14.2,1.3,18.7,7.9c2.6,3.8,3.9,8.1,4.3,12.6c0.8,8.8-0.8,17.2-4.8,25.1c-2.1,4.2-4.9,7.9-8.7,10.7
	c-9.8,7.2-22,4.5-27.7-6.3c-2.9-5.5-3.8-11.5-3.2-17.7c0.4-4.3,1.1-4.6-4-5.7c-7.7-1.6-15.3-3.3-23-5c-1.9-0.4-2.2-0.3-2.6,1.7
	c-1.6,6.7-3,13.4-4.5,20.1c-1.7,7.5-3.3,15-4.9,22.5c-0.2,0.9-0.5,1.8-0.8,2.8c-0.2,0.7-0.8,1-1.5,0.9c-3-0.6-5.9-1.3-8.9-1.9
	c-4.8-1.1-9.7-2.2-14.5-3.2c-1.9-0.4-2.5,0.3-1.9,2c1.3,3.3,2.7,6.5,4,9.8c1.5,3.5,3,7.1,4.4,10.6c0.7,1.8,0.4,2.3-1.2,3
	c-1.9,0.8-2.5,0.6-3.3-1.3c-1.7-4.1-3.4-8.3-5.1-12.4c-0.5-1.3-1.1-2.6-1.7-4c-0.2-0.4-0.5-0.9-1-0.6c-0.3,0.1-0.5,0.4-0.6,0.6
	c-0.2,0.6-0.3,1.2-0.5,1.9c-2.5,11.4-5,22.8-7.6,34.2c-0.3,1.6-0.7,3.1-1,4.7c-0.5,2.8-1.6,2.6-3.8,2c-0.9-0.2-1.3-0.9-1.1-1.8
	c0.5-2.7,1-5.3,1.6-8c2.2-10.1,4.5-20.3,6.7-30.4c0.1-0.5,0.3-0.9,0.3-1.4c0-0.5-0.1-0.9-0.2-1.4c-0.4,0.1-1,0.1-1.3,0.4
	c-1.1,0.9-2.1,1.9-3.2,2.9c-2.8,2.6-5.6,5.2-8.5,7.8c-1.2,1.1-1.7,1-2.8-0.1c-0.2-0.2-0.4-0.5-0.6-0.7c-0.8-0.8-1-1.6-0.1-2.5
	c0.8-0.8,1.6-1.6,2.4-2.3c4.1-3.8,8.2-7.6,12.3-11.4c0.8-0.8,1.6-1.5,2.4-2.3c0.5-0.6,0.5-1.2-0.3-1.5c-0.7-0.3-1.5-0.5-2.3-0.7
	c-5.8-1.3-11.5-2.6-17.3-3.8c-0.9-0.2-1.9-0.4-2.8-0.7c-0.6-0.2-1.1-0.7-1-1.5c0.2-1.3,0.4-2.5,0.7-3.8c2.9-13.1,5.8-26.2,8.7-39.3
	c0.2-0.8,0.4-1.6,0.5-2.3c0.2-1.5-0.1-2-1.5-2.4c-2.5-0.6-5-1.2-7.5-1.7c-5.1-1.1-10.3-2.3-15.5-3.4c-1.1-0.2-2.2-0.5-3.3-0.6
	c-0.9-0.1-1.5,0.3-1.9,1.1c-0.4,1.2-0.8,2.4-1.3,3.6c-1.4,3.4-3.2,6.6-5.5,9.5c-2.2,2.6-4.7,4.8-7.7,6.4c-8.2,4.3-17.6,2.1-23.1-5.3
	c-2.7-3.7-4.2-7.9-4.7-12.4c-1-8.6,0.4-16.9,4-24.8c2-4.3,4.6-8.1,8.2-11.1c4.8-3.9,10.2-5.9,16.5-4.5c4.4,1,7.9,3.4,10.6,7
	c2.8,3.8,4.3,8.2,4.8,12.9c0.3,3.2,0.2,6.4,0,9.6c-0.1,2.6,0,2.8,2.3,3.3c8.3,1.9,16.5,3.7,24.8,5.5c1.7,0.4,2.2,0,2.6-1.8
	c1.6-6.9,3.2-13.7,4.6-20.6c0.7-3.7,1.5-3.6,4.5-2.9c6.1,1.3,12.2,2.7,18.3,4c0.9,0.2,1.9,0.4,2.8,0.6c1.4,0.2,2-0.3,2.4-1.7
	c0.9-3.7,1.6-7.5,2.5-11.2c1.7-7.5,3.3-15,5-22.5c0.4-1.8,0.1-2.9-1.4-4.1c-4-3.1-5.6-7.3-4.3-12.3c0.8-2.9,2.5-5.2,5.1-6.7
	c1.2-0.7,2.5-1.4,3.8-2C2212,162.2,2213.6,162.2,2215.2,162.2z"/>
<path fill="#D6E9F6" d="M2226.7,236.1c0.1-0.8-0.1-1.7-1.3-2c-0.9-0.2-1.8-0.5-2.8-0.7c-14.2-3.1-28.4-6.2-42.6-9.4
	c-3.2-0.7-3.8-0.4-4.5,2.9c-4.6,21.1-9.3,42.1-13.9,63.2c-0.2,0.8-0.3,1.6-0.3,2.4c-0.1,0.9,0.4,1.5,1.2,1.8
	c0.6,0.2,1.2,0.4,1.8,0.5c14.3,3.2,28.7,6.4,43,9.5c4.1,0.9,4.1,0.8,5-3.3c3.5-15.6,6.9-31.2,10.4-46.8
	C2224.1,248.2,2225.3,242.2,2226.7,236.1z"/>
<path fill="#53456A" d="M1318.5,1365.1c-3.2-6.2-6.5-12.4-9.7-18.7c-10.8-21.4-20.7-43.2-28-66.1c-3.4-10.5-6-21.2-6.9-32.3
	c-1.2-14.4,3.4-26.4,14.7-35.7c1.5-1.2,2.7-2.5,3.5-4.4c2.8-6.9,8-11.5,14.8-14.2c8.8-3.5,17.5-3.2,26.1,0.8
	c6,2.8,10.5,7.2,13.1,13.4c0.8,1.9,1.9,3.2,3.4,4.5c11.4,9.3,16.1,21.5,14.7,36.1c-1.3,13.8-5.1,27-9.7,40
	c-9,25.2-20.6,49.2-33.3,72.7c-0.7,1.2-1.9,2.3-1.6,3.9C1319.2,1365.1,1318.9,1365.1,1318.5,1365.1z"/>
<path fill="#EDC062" d="M1278.8,1246.7c0.2,1.8,0.4,4.8,0.9,7.8c1.5,10,4.2,19.7,7.5,29.2c8.1,23.5,18.5,45.9,30,67.9
	c0.1,0.3,0.3,0.6,0.4,0.8c0.9,1.6,1.5,1.6,2.3,0.2c0.6-1,1.1-2,1.6-3c4-8,8.1-15.9,12-24c7.8-16.5,14.9-33.2,20.1-50.7
	c2.9-9.7,5.3-19.4,5.7-29.6c0.4-9.4-2.3-17.7-8.5-24.7c-0.4-0.5-0.9-0.9-1.4-1.3c-0.4-0.3-1-0.3-1.2,0.2c-0.2,0.7-0.4,1.5-0.5,2.3
	c-0.7,7.2-2.6,14.1-4.9,21c-5.7,17-13.5,33.1-22.1,48.8c-0.2,0.3-0.3,0.6-0.5,0.8c-1.2,1.9-1.6,1.9-2.8-0.2
	c-0.2-0.4-0.5-0.8-0.7-1.2c-7.7-14-14.5-28.5-20-43.5c-3.1-8.4-5.6-17-6.5-26c-0.1-0.6-0.2-1.3-0.3-1.9c-0.2-0.7-0.9-0.9-1.4-0.4
	c-0.7,0.7-1.4,1.3-2,2.1C1280.7,1228.4,1278.4,1236.5,1278.8,1246.7z"/>
<path fill="#D8A852" d="M1295.2,1220.1c0,4.1,1.3,9.6,2.8,15c4.6,16.4,11.8,31.7,19.5,46.8c0.1,0.3,0.3,0.6,0.5,0.8
	c0.6,0.9,1.3,0.9,1.8,0c1.6-3.1,3.3-6.2,4.8-9.4c6.1-12.5,11.7-25.2,15.5-38.6c1.5-5.2,2.6-10.5,2.7-16c0.2-8.7-3.8-15-11.4-19
	c-7.8-4.1-16-4.3-24-0.5C1299.3,1202.9,1295,1209.4,1295.2,1220.1z"/>
<path fill="#EDCFE4" d="M2642.4,753.5c-1.4,0.3-2.8,0.5-4.2,0.8c-3.2,0.8-5.3,2.8-6.4,5.9c-0.7,2.1-1.1,4.3-1,6.6
	c0,2.1,0.1,4.2,0,6.2c0,1.6-0.9,2.6-2.2,2.6c-1.3,0-2.2-0.8-2.4-2.4c-0.3-2-0.6-4.1-1-6.2c-0.3-2.1-1-4-2-5.9c-1.6-3-4.1-4.9-7.6-5
	c-1.1,0-2.2-0.1-3.3-0.4c-1-0.3-1.5-1.1-1.5-2.2c0-0.9,0.4-1.6,1.2-1.9c1-0.4,2.1-0.7,3.2-0.9c3.9-0.8,6-3.5,6.9-7.1
	c0.7-3,1.1-6,0.8-9c-0.1-1.1-0.2-2.2,0-3.3c0.1-1,0.8-1.7,1.9-1.8c1-0.1,2,0.2,2.3,1.3c0.4,1.2,0.6,2.5,0.7,3.7
	c0.3,2.7,0.9,5.4,1.9,7.9c1.6,4.1,4.4,6.6,9,6.6c1.3,0,2.5,0.2,3.7,0.7C2642.4,751,2642.4,752.3,2642.4,753.5z M2630.7,752.6
	c-0.1-0.4-0.1-0.8-0.3-0.9c-1.5-1.1-2.4-2.9-4.1-3.7c-1.1,1.5-2.3,3-3.4,4.5c-0.3,0.4-0.1,0.9,0.3,1.2c0.9,0.9,1.8,1.8,2.7,2.7
	c1.3,1.2,1.4,1.2,2.4-0.3C2629.2,754.9,2630,753.7,2630.7,752.6z"/>
<path fill="#53456A" d="M121.4,672.9c1.4,0,1.8-1.1,2.4-2c1.4-1.9,3.3-2.9,5.7-2.9c3.3,0,5.8,1.8,6.8,5c0.9,2.9-0.4,6.2-3.1,7.8
	c-2.5,1.6-6.2,1.2-8.4-0.9c-0.7-0.7-1.2-1.5-1.7-2.3c-0.4-0.6-1-0.8-1.6-0.8C121.4,675.5,121.4,674.2,121.4,672.9z M129.5,672.8
	c-1.1,0-2.1,1.2-1.9,2.3c0.1,0.9,1.2,1.7,2,1.7c1.1,0,2-1.2,1.9-2.3C131.4,673.6,130.4,672.8,129.5,672.8z"/>
<path fill="#53456A" d="M1073.8,1098.5c-34.1,0-68.2,0-102.2,0c-1.6,0-3.2,0-4.8-0.2c-1.4-0.2-2.1-1.5-1.8-2.9
	c0.4-1.5,1.4-2.5,2.2-3.7c9.1-12.6,18.2-25.1,27.3-37.7c51.6-71.2,103.2-142.5,154.9-213.7c2.3-3.2,3.6-6.5,4.2-10.4
	c2.7-17.9,5.6-35.7,8.8-53.5c5.1-28.3,11.1-56.5,17.9-84.4c15.3-63.3,34.6-125.4,58.7-186c21.2-53.3,45.8-104.9,74.8-154.4
	c18.3-31.2,38.2-61.4,60.7-89.8c3.6-4.5,7.3-8.9,11-13.3c0.7-0.9,1.4-1.7,2.2-2.5c1.7-1.7,2.9-1.8,4.5-0.1c1.6,1.6,3,3.3,4.5,5
	c12.2,14.2,23.4,29.2,34.1,44.6c24.8,35.6,46.6,73.1,66.3,111.7c37.5,73.6,66.6,150.5,89.2,229.9c12.3,43.2,22.6,86.9,30.9,131.1
	c3.9,20.7,7.5,41.5,10.5,62.4c0.4,2.6,1.5,4.8,3.1,6.9c19.6,26.9,39.1,53.8,58.7,80.7c41.4,56.9,82.8,113.9,124.1,170.8
	c1.1,1.6,2.3,3.1,3.3,4.7c1,1.7,0.1,3.6-1.9,3.9c-1.4,0.2-2.9,0.1-4.3,0.1c-66.1,0.1-132.1,0.1-198.2,0.2c-1.4,0-2.9,0-4.3,0
	c-1.2,0-1.7,0.7-1.7,1.8c0,3.7,0,7.4,0,11c0,3,0.1,6.1-0.1,9.1c-0.5,7.3-5.9,12.5-13.1,12.7c-7.2,0.1-14.4,0-21.6,0
	c-11.5,0-23,0-34.6,0c-1.3,0-2.6,0-3.8,0.1c-1.3,0.1-1.8,0.6-1.7,1.8c0.1,1.3,0.3,2.5,0.6,3.8c1.9,10.4,3.8,20.8,5.6,31.2
	c1.1,6.7-3.5,12.5-10.3,12.9c-1.3,0.1-2.6,0-3.8,0c-18.4,0-36.8,0-55.2,0c-11.4,0-22.7,0-34.1,0c-1.1,0-2.2,0-3.4,0
	c-6.7-0.5-11.5-6.2-10.4-12.9c0.9-5.5,2-11,3-16.5c1-5.7,2.1-11.3,3.1-17c0.1-0.6,0.2-1.3,0.2-1.9c0-0.7-0.4-1.2-1.1-1.3
	c-0.8-0.1-1.6-0.1-2.4-0.1c-16.2,0-32.3,0-48.5,0c-0.8,0-1.6,0-2.4,0.1c-1,0.1-1.4,0.7-1.3,1.6c0.1,1.1,0.3,2.2,0.5,3.3
	c1.9,10.4,3.8,20.8,5.6,31.1c1.3,7.5-3.4,13.3-11,13.6c-1.1,0-2.2,0-3.4,0c-9.9,0-19.8,0-29.8,0c-19.5,0-39,0-58.6,0
	c-1.3,0-2.6,0.1-3.8,0c-7-0.4-11.7-6.3-10.5-13.2c1.5-8.8,3.2-17.6,4.8-26.4c0.5-2.7,1-5.3,1.4-8c0.2-1.5-0.3-2-1.9-2
	c-1.4-0.1-2.9,0-4.3,0c-20.6,0-41.3,0-61.9,0c-1.4,0-2.9,0-4.3,0c-5.5,0-11.6-4.9-12.2-11.5c-0.2-2.1-0.2-4.2-0.3-6.2
	c0-4.8,0-9.6-0.1-14.4c0-1.9-0.5-2.3-2.3-2.3c-1.4-0.1-2.9,0-4.3,0c-33.8,0-67.5,0-101.3,0
	C1073.8,1098.4,1073.8,1098.4,1073.8,1098.5z"/>
<path fill="#B1BFC4" d="M1390.3,1055.8c81.8,0,163.5,0,245.3,0c6,0,5.9,0.9,5.8-6c-0.6-27.8-2-55.6-3.9-83.4
	c-1.2-17.2-2.6-34.5-4.3-51.6c-2-20.5-4.4-41-7.2-61.5c-2.8-20.6-6-41.1-9.6-61.6c-6.6-38.3-14.7-76.3-24.3-113.9
	c-14.6-57.6-32.7-114-54.7-169.2c-2.1-5.4-1.3-4.7-6.8-4.7c-93.4,0-186.9,0-280.3,0c-5.7,0-4.7-0.5-6.8,4.7
	c-10.1,25.2-19.3,50.8-27.7,76.7c-13.3,40.7-24.7,82-34.3,123.8c-5.5,24-10.5,48.1-14.8,72.4c-3.2,18.1-6.2,36.2-8.8,54.4
	c-2.7,18.5-5.1,37.1-7.1,55.7c-1.6,14.6-2.9,29.3-4.3,43.9c-2,20.7-3.3,41.5-4.3,62.2c-0.9,17.1-1.4,34.2-1.9,51.3
	c-0.2,7.9-1.2,6.9,6.7,6.9C1228,1055.8,1309.2,1055.8,1390.3,1055.8z"/>
<path fill="#53456A" d="M1728.3,1092.9c0-0.1,0-0.1,0-0.2c18.9,0,37.7,0,56.6,0c6.1,0,12.2,0,18.2,0c1.9,0,3.8,0.5,5.6-0.5
	c0.1-2.3-1.7-3.6-2.9-5.2c-47.4-65.3-94.9-130.6-142.4-196c-9.7-13.3-19.4-26.6-29-40c-0.8-1.2-1.7-2.3-2.6-3.4
	c-0.2-0.2-0.6-0.3-0.8-0.3c-0.2,0.1-0.5,0.4-0.5,0.6c0,1,0.1,1.9,0.2,2.9c1.3,10.3,2.6,20.6,3.9,30.9c2.6,20.6,4.6,41.3,6.2,62
	c1.5,19.3,2.9,38.6,3.8,57.9c1.2,25.1,2.2,50.2,2.2,75.3c0,4.6,0.1,9.3,0.1,13.9c0,1.1,0.6,1.8,1.7,1.9c1.6,0.1,3.2,0.1,4.8,0.1
	C1678.4,1092.9,1703.3,1092.9,1728.3,1092.9z"/>
<path fill="#53456A" d="M1053.3,1093.5C1053.3,1093.4,1053.3,1093.4,1053.3,1093.5c25.1-0.1,50.2-0.1,75.3-0.1c1.4,0,2.9,0,4.3-0.1
	c0.9,0,1.5-0.5,1.6-1.4c0.1-0.8,0.1-1.6,0.1-2.4c0.1-5.6,0.2-11.2,0.2-16.8c0.1-20.5,0.8-40.9,1.5-61.4c0.3-6.9,0.6-13.7,1-20.6
	c0.8-13.2,1.7-26.5,2.6-39.7c0.6-8.8,1.3-17.5,2.2-26.3c1.1-11.1,2.2-22.3,3.4-33.4c1.1-9.9,2.3-19.7,3.5-29.5
	c0.4-3.7,0.9-7.3,1.4-10.9c0.1-0.7,0.5-1.8-0.4-2c-0.9-0.2-1.2,0.9-1.7,1.4c-0.4,0.5-0.8,1-1.1,1.5c-57.2,79-114.5,158-171.7,237
	c-0.7,1-1.5,2.1-2.2,3.2c-0.4,0.6,0,1.3,0.6,1.4c1.4,0.1,2.9,0.1,4.3,0.1C1003.4,1093.5,1028.3,1093.5,1053.3,1093.5z"/>
<path fill="#B1BFC4" d="M1390.1,463.6c40.6,0,81.2,0,121.8,0c1.6,0,3.2,0,4.8-0.1c0.7,0,1.2-0.5,0.9-1.3c-0.4-1.1-0.8-2.1-1.3-3.1
	c-18.9-42-40.2-82.8-64.4-122c-3.1-4.9-1.7-4.3-7.9-4.4c-35.8,0-71.6,0-107.5,0c-6.4,0-5.1-0.7-8.3,4.5
	c-24.1,39.1-45.2,79.8-64,121.7c-0.5,1-0.9,2-1.3,3.1c-0.2,0.7,0,1.3,0.8,1.4c1.6,0.1,3.2,0.1,4.8,0.1
	C1309.2,463.6,1349.6,463.6,1390.1,463.6z"/>
<path fill="#B2ACBF" d="M1391.1,1093.3c0-0.1,0-0.1,0-0.2c81.6,0,163.1,0,244.7,0c1.1,0,2.2,0,3.4,0c0.5,0,1-0.1,1.4-0.1
	c0.7-0.1,1.2-0.5,1.3-1.2c0.1-1.1,0.2-2.2,0.1-3.3c-0.1-7-0.1-14.1-0.2-21.1c0-7.5,0.4-6.5-6.9-6.5c-162.8,0-325.6,0-488.4,0
	c-1.3,0-2.6,0-3.8,0c-2.3,0.1-2.6,0.3-2.6,2.4c-0.1,9.1-0.2,18.2-0.2,27.3c0,2.6,0.3,2.7,2.7,2.8c1.3,0,2.6,0,3.8,0
	c15.7,0,31.3-0.1,47-0.1C1259.3,1093.3,1325.2,1093.3,1391.1,1093.3z"/>
<path fill="#53456A" d="M1394.1,1098.7c-66.7,0-133.4,0-200.2,0c-1.8,0-3.5,0-5.3,0.1c-1.1,0-1.8,0.6-1.8,1.8
	c0,6.4-0.2,12.8,0.1,19.2c0.2,4.8,3.5,7.8,8.4,8.1c1.4,0.1,2.9,0,4.3,0c129.6,0,259.2,0,388.8,0c1.6,0,3.2,0.1,4.8,0
	c4.2-0.3,7.1-3,7.9-7.1c0.2-0.9,0.2-1.9,0.2-2.9c0-5.1,0-10.2,0-15.4c0-0.6,0-1.3-0.1-1.9c-0.1-1.1-0.7-1.8-1.8-1.8
	c-1.8-0.1-3.5-0.1-5.3-0.1C1527.6,1098.7,1460.8,1098.7,1394.1,1098.7z"/>
<path fill="#B2ACBF" d="M1390.2,498.7c45.4,0,90.8,0,136.3,0c1.8,0,3.5-0.1,5.3-0.2c0.8,0,1.1-0.7,0.9-1.3c-0.4-1.2-0.8-2.4-1.3-3.6
	c-2.8-6.6-5.5-13.3-8.4-19.9c-2.7-6-1.3-5-8-5.1c-0.2,0-0.3,0-0.5,0c-82.7,0-165.4,0-248,0c-1.1,0-2.3,0.1-3.4,0
	c-2.1-0.2-3.2,0.7-4,2.6c-3.4,8.1-6.9,16.2-10.2,24.3c-1.2,2.9-0.9,3.2,2.3,3.2c1.3,0,2.6,0,3.8,0
	C1300,498.7,1345.1,498.7,1390.2,498.7z"/>
<path fill="#89A2B0" d="M1478.9,1177.6c14.9,0,29.7,0,44.6,0c1.3,0,2.6,0.1,3.8-0.1c3.6-0.5,5.7-3,5.5-6.6c-0.1-1.1-0.3-2.2-0.5-3.3
	c-1.8-9.6-3.7-19.1-5.3-28.7c-1-6.1-1.1-5.2-6.3-5.2c-27.6,0-55.3,0-82.9,0c-1,0-1.9,0-2.9,0c-2.5,0.1-2.7,0.3-3.1,2.7
	c-1.9,10.5-3.8,21-5.7,31.6c-0.2,1.1-0.4,2.2-0.5,3.3c-0.1,3.2,1.8,5.6,4.9,6.2c1.4,0.3,2.9,0.2,4.3,0.2
	C1449.5,1177.6,1464.2,1177.6,1478.9,1177.6z"/>
<path fill="#89A2B0" d="M1318.8,1177.6c14.9,0,29.7,0,44.6,0c1.4,0,2.9,0,4.3-0.2c3.1-0.6,5-3,4.9-6.1c0-1.3-0.3-2.5-0.5-3.8
	c-1.8-9.9-3.7-19.8-5.4-29.7c-0.8-4.6-1.4-4.1-4.8-4.1c-1,0-1.9,0-2.9,0c-26,0-52.1,0-78.1,0c-1.8,0-3.5,0-5.3,0
	c-3.5,0.1-3.5,0.1-4.1,3.3c-1.6,8.6-3.2,17.3-4.7,25.9c-0.5,2.5-1,5-1.3,7.6c-0.5,4.1,1.8,6.7,5.9,7.1c1.3,0.1,2.6,0.1,3.8,0.1
	C1289.8,1177.6,1304.3,1177.6,1318.8,1177.6z"/>
<path fill="#B2ACBF" d="M1390,327.6c16.6,0,33.3,0,49.9,0c1.4,0,2.9,0,4.3-0.2c0.7-0.1,1.1-0.7,0.7-1.4c-0.3-0.7-0.8-1.4-1.2-2.1
	c-3.8-5.7-7.5-11.5-11.4-17.2c-11.8-17.5-24.3-34.5-37.9-50.7c-1.1-1.3-2.3-2.6-3.5-3.9c-0.5-0.6-1.1-0.6-1.6,0
	c-1.2,1.3-2.4,2.6-3.5,3.9c-18,21.5-34,44.4-49.2,68c-0.4,0.7-0.9,1.4-1.2,2.1c-0.4,0.8,0.1,1.3,0.8,1.3c1.4,0.1,2.9,0.1,4.3,0.1
	C1357,327.6,1373.5,327.6,1390,327.6z"/>
<path fill="#53456A" d="M2255.6,880c-14.7-0.3-27.4-5.4-37.9-15.9c-0.7-0.7-1.4-1.3-1.9-2.1c-1.1-1.5-2.3-1.8-4.1-1.3
	c-5.3,1.4-10.6,2.6-15.9,3.7c-9.5,2.1-19.1,3.9-28.8,5c-5.1,0.6-10.2,0.7-15.3,0.4c-1.9-0.1-3.8-0.5-5.6-1.3
	c-3.4-1.6-4.4-4.6-2.8-7.9c0.9-1.8,2.2-3.1,3.6-4.4c2.6-2.4,5.5-4.4,8.5-6.2c8.4-5.2,17.3-9.6,26.4-13.7c6-2.7,12-5.3,18.1-7.7
	c2.1-0.8,2.8-2.1,2.9-4.3c0.4-11,4.1-21,10.9-29.6c10.9-13.9,25.4-20.8,42.9-20.6c15.6,0.2,28.8,6.5,39.2,18.3c4,4.5,2.6,3.7,8,2.4
	c12-2.9,24-5.5,36.2-7.2c5.7-0.8,11.4-1.5,17.2-1.3c2.4,0.1,4.8,0.3,7.1,1c1.1,0.3,2.1,0.8,3,1.4c2.2,1.5,2.8,3.8,1.8,6.3
	c-0.6,1.5-1.6,2.8-2.7,3.9c-2.2,2.3-4.8,4.2-7.5,6c-6.8,4.5-14,8.3-21.4,11.8c-8,3.7-16.1,7.1-24.1,10.7c-0.9,0.4-1.8,0.7-2.7,1.1
	c-1.5,0.5-2.3,1.6-2.3,3.2c-0.1,3.2-0.7,6.4-1.7,9.4c-6.8,21.7-21.4,34.6-43.9,38.4c-1.3,0.2-2.5,0.4-3.8,0.5
	C2257.8,880,2256.7,880,2255.6,880z"/>
<path fill="#B2ACBF" d="M2207.4,826.6c0,5.5,0.8,10.8,2.6,16c1.7,5,1.5,4.9,6.7,3.5c27.4-7.6,54.4-16.5,81.1-26.4
	c1.2-0.4,2.4-0.9,3.5-1.5c0.8-0.4,1.2-1.1,1-1.9c-0.1-0.8-0.4-1.5-0.6-2.3c-6.6-23.7-29.7-37.3-51.5-34.8
	C2226.3,781.8,2207.6,802.1,2207.4,826.6z"/>
<path fill="#B2ACBF" d="M2254.6,875.1c22,0,40.8-13.9,47-34.1c0.8-2.6,1.2-5.3,1.7-7.9c0.1-0.8-0.4-1.3-1.1-1.1
	c-1.2,0.3-2.4,0.7-3.6,1.2c-24.4,9.3-49.1,17.3-74.2,24.1c-1.1,0.3-2.2,0.6-3.2,0.9c-0.7,0.3-1,0.9-0.5,1.5c0.6,0.8,1.2,1.5,1.9,2.1
	C2231.8,870.5,2242.8,874.9,2254.6,875.1z"/>
<path fill="#FFFFFF" d="M2344,798.9c-0.2-0.4-0.3-0.8-0.4-0.8c-0.8,0-1.6,0-2.4,0c-11.1,1.3-21.9,3.9-32.7,6.6
	c-4.3,1.1-4.5,0.4-2.7,5.3c0.5,1.5,1,3,1.5,4.5c0.2,0.7,0.7,1,1.4,0.8c0.8-0.2,1.5-0.5,2.3-0.8c7.8-3.1,15.6-6.4,23.2-10.1
	c2.9-1.4,5.6-3,8.4-4.5C2343.1,799.7,2343.6,799.2,2344,798.9z"/>
<path fill="#FFFFFF" d="M2169.4,856.5c1.4-0.1,2.9-0.2,4.3-0.4c10.2-1.6,20.3-4,30.3-6.5c0.6-0.2,1.2-0.4,1.8-0.6
	c0.7-0.3,0.9-0.9,0.7-1.5c-0.7-2.3-1.4-4.5-2.2-6.8c-0.5-1.4-1.1-1.7-2.5-1.1c-9.3,3.7-18.6,7.5-27.5,12.1c-1.8,0.9-3.6,2-5.4,3
	c-0.4,0.2-0.8,0.6-1.1,0.9c-0.1,0.1,0.1,0.7,0.2,0.8C2168.4,856.4,2168.9,856.4,2169.4,856.5z"/>
<path fill="#B2ACBF" d="M648,554c9.7,0.5,18.1,2.9,25.3,8.4c5.7,4.4,10,9.9,11.8,17c0.7,2.7,2.1,3.9,4.7,4.7
	c5.1,1.5,9.9,3.5,14.5,6.2c2.2,1.3,4.3,2.8,6.1,4.7c4.5,5,4,10.4-1.5,14.4c-2.8,2-5.9,3.1-9.1,4.1c-1,0.3-1.2,1.1-0.6,1.8
	c1.1,1.2,2.2,2.3,3.3,3.5c0.5,0.6,0.5,1.1,0,1.7c-0.5,0.6-1.1,1.1-1.7,1.7c-0.7,0.7-1.4,0.5-2.1-0.1c-1.6-1.6-3.3-3.1-4.8-4.7
	c-1.4-1.6-2.9-2-5.1-1.7c-9,1.2-18.1,1.5-27.3,1c-12.8-0.7-25.5-2.3-38-5.2c-5.9-1.4-11.8-3-17.5-5.2c-1.9-0.7-3.3-0.5-4.9,0.5
	c-1.6,1.1-3.2,2.1-4.9,3c-1.5,0.9-1.9,0.7-2.8-0.5c-1.6-2.3-1.6-2.7,0.7-4.1c3.3-2,4-2.3-0.3-4.7c-1.8-1-3.4-2.4-5-3.6
	c-1.4-1.1-2.5-2.5-3.3-4.1c-2-3.8-1.5-7.5,1.7-10.5c2.3-2.1,5-3.3,7.9-4.3c4.7-1.6,9.6-2.3,14.5-2.9c0.5-0.1,1-0.1,1.4-0.1
	c2.4,0.2,3.7-0.9,4.8-3c5.3-9.8,14-15.1,24.7-17.2C643.3,554.4,646,553.9,648,554z"/>
<path fill="#FFFFFF" d="M670.5,612c2.9-0.1,7.4-0.2,11.9-0.5c6.2-0.4,12.4-1.4,18.3-3.4c2.3-0.8,4.5-1.7,6.2-3.4
	c1.8-1.7,1.9-3.5,0.4-5.5c-1.3-1.7-2.9-2.9-4.7-4c-4.5-2.8-9.4-4.7-14.4-6.4c-1.2-0.4-1.9,0-2,1.2c-0.3,2.5-0.8,5-1.7,7.4
	c-0.6,1.5-1.4,2.4-3.1,2.5c-4,0.2-8,0.7-12,0.7c-12.5,0.2-24.9-1.2-37.1-3.7c-5.6-1.2-11.1-2.8-16.6-4.7c-1.9-0.7-3-1.6-2.9-3.8
	c0.1-2.1,0-4.1,0-6.2c0-1.9-0.4-2.4-2.1-2.2c-4.8,0.6-9.5,1.2-14.1,2.8c-2,0.7-3.9,1.5-5.5,2.8c-2.1,1.8-2.4,3.5-0.7,5.8
	c1.4,2,3.4,3.4,5.4,4.7c4.8,3,9.9,5.1,15.2,6.9C629.8,609.1,649.2,611.7,670.5,612z"/>
<path fill="#53456A" d="M1433.9,1243.1c0.1-11.9,4.8-22.5,14.7-30.6c1.5-1.2,2.8-2.4,3.6-4.3c3.3-7.9,9.3-12.8,17.4-15.3
	c8.5-2.6,16.7-1.8,24.6,2.2c5.4,2.8,9.6,7,11.9,12.6c0.8,2,2.1,3.5,3.7,4.8c11.1,9.1,15.7,20.9,14.6,35.2c-1,13-4.5,25.5-8.7,37.7
	c-7.8,22.6-17.8,44.1-28.8,65.2c-2.2,4.2-4.6,8.4-6.9,12.6c-0.5,0.9-1.3,0.9-1.8,0.1c-0.4-0.5-0.7-1.1-1-1.6
	c-13.4-24.7-25.5-50.1-34.6-76.8c-3.2-9.2-5.8-18.6-7.4-28.2C1434.5,1252.5,1433.9,1248.2,1433.9,1243.1z"/>
<path fill="#EDC062" d="M1519.5,1243.9c0.4-7.2-1.9-14.9-7.2-21.6c-0.8-1-1.7-1.9-2.6-2.8c-0.5-0.5-1.3-0.2-1.5,0.4
	c-0.1,0.5-0.2,0.9-0.3,1.4c-0.7,8.9-3.3,17.3-6.3,25.5c-5.6,15.4-12.6,30-20.5,44.3c-0.4,0.7-0.8,1.4-1.2,2.1
	c-0.5,0.8-1.3,0.8-1.8-0.1c-0.7-1.1-1.3-2.2-1.9-3.3c-2.5-4.8-5.1-9.6-7.4-14.5c-8.3-17.7-16.4-35.4-18.6-55.1c0-0.4-0.4-1-0.6-1.1
	c-0.4-0.1-0.9,0.2-1.2,0.5c-4.9,5.1-8,11.1-9,18.2c-0.8,5.8-0.3,11.5,0.6,17.2c1.2,7.9,3.2,15.6,5.7,23.3
	c8.1,25.5,19.4,49.7,31.8,73.4c0.3,0.6,0.6,1.1,1,1.6c0.3,0.3,0.8,0.7,1.2,0.1c0.8-1.2,1.5-2.5,2.2-3.7c6-11.3,11.6-22.8,16.8-34.5
	c6.3-14.2,12-28.6,16.2-43.5C1517.2,1262.8,1519.2,1254.1,1519.5,1243.9z"/>
<path fill="#D8A852" d="M1503,1219.3c0.8-11.6-7.1-18.5-14.6-21.2c-5.3-1.8-10.7-2.2-16-0.7c-10.4,2.7-18.1,11-16.8,23.4
	c0.5,4.8,1.4,9.5,2.7,14.1c3.8,13.4,9.3,26.2,15.4,38.7c1.5,3,3,6,4.5,9c0.6,1.2,1.4,1.2,2-0.1c3.3-6.6,6.6-13.1,9.7-19.8
	c4.2-9.1,7.9-18.5,10.5-28.2C1501.7,1229.4,1503,1224.4,1503,1219.3z"/>
<path fill="#EDCFE4" d="M595.6,1194.2c-7.2-0.1-12.7-4.4-14.6-10.9c-1.8-6.4,0.8-13.1,6.5-16.6c1.5-0.9,3.1-1.6,4.8-2.3
	c22.4-9.8,42.4-23,59.5-40.5c10.7-11,19.6-23.2,26-37.1c2-4.4,3.6-8.9,5-13.5c0.6-1.9,3.1-2.5,4.5-1.1c0.5,0.5,0.6,1.1,0.5,1.8
	c-0.5,3.5-0.9,7-1.5,10.4c-4.9,24.7-15.7,46.6-31.4,66.1c-14.1,17.4-31.2,31.1-51.1,41.4C601.1,1193.3,598.3,1194.4,595.6,1194.2z"
	/>
<path fill="#EDCFE4" d="M676.5,1101.3c-1.7,0.2-2.1,1.8-2.8,2.9c-8.4,13-18.7,24.3-30.5,34.3c-14.6,12.4-30.8,22.3-48.3,30
	c-1.6,0.7-3.3,1.3-4.8,2.2c-4.6,2.7-6.2,8.2-3.9,12.9c2.2,4.7,7.6,6.9,12.5,5.1c1-0.4,2.1-0.9,3.1-1.4
	c34.3-18.1,58.8-45.1,73.1-81.1c0.6-1.6,1.5-3.2,1.4-5c0-0.2,0.8-0.3,0.1-0.7C676.5,1100.8,676.5,1101.1,676.5,1101.3z"/>
<path fill="#B2ACBF" d="M745.5,1062.2c-0.2,30.1-8.2,58-24,83.7c-0.9,1.5-1.8,3-2.9,4.4c-5,6.5-13.9,8-20.5,3.4
	c-6.6-4.6-8.4-13.5-4-20.4c1.1-1.8,2.4-3.4,3.7-5c13.1-18.2,23-37.9,29-59.6c3.6-13,5.6-26.2,5.4-39.8c-0.1-6.9-0.9-13.7-2.4-20.4
	c-0.2-0.8-0.4-1.6-0.5-2.3c-0.4-2.2,0.6-3.5,3-3.6c0.4,0,1,0.3,1.2,0.6c0.5,0.8,0.9,1.7,1.3,2.6c5.2,12.3,8.3,25.1,9.9,38.4
	C745.2,1050.1,745.5,1056.1,745.5,1062.2z"/>
<path fill="#B2ACBF" d="M740.7,1059.1c0.2-3.4-0.5-9.6-1.2-15.7c-0.4-3.3-1.1-6.6-1.8-9.9c0-0.3-0.4-0.5-0.6-0.7
	c-0.1,0.2-0.3,0.5-0.3,0.7c-0.1,0.5-0.1,1-0.1,1.4c-0.3,11.9-2.3,23.5-5.4,34.9c-6.2,22.6-16.6,43.1-30.4,62c-1,1.4-2.1,2.8-3.1,4.3
	c-1.6,2.6-2,5.4-1,8.3c1.3,3.6,3.7,5.9,7.5,6.7c3.9,0.8,7.3-0.3,9.9-3.5c1-1.2,1.8-2.6,2.7-4
	C732.6,1118.7,740.4,1091.5,740.7,1059.1z"/>
<path fill="#B2ACBF" d="M460.3,386.8c0-2.6-0.1-5.1,0-7.7c0-1,0.7-1.8,1.8-2c1.2-0.2,2.3,0.4,2.6,1.5c0.2,0.6,0.2,1.3,0.3,1.9
	c0.3,2.4,0.6,4.8,0.9,7.1c0.6,3.6,1.4,7.2,2.7,10.7c0.8,2.1,1.9,4.1,3.2,5.9c2.9,4,6.9,6.1,11.7,6.6c1.6,0.2,3.2,0.2,4.8,0.1
	c1.5-0.1,2.9,0.8,3.1,2.3c0.1,1.1-0.9,2.1-2.5,2.4c-1.2,0.3-2.5,0.5-3.8,0.7c-6.3,1.4-10.5,5.1-12.7,11.1c-1,2.9-1.8,5.8-1.8,8.9
	c-0.1,4,0,8,0,12c0,1.1,0.1,2.2-0.1,3.3c-0.1,1-0.9,1.7-2,1.8c-1.1,0.1-1.9-0.4-2.3-1.4c-0.3-0.9-0.4-1.9-0.5-2.8
	c-0.7-4.7-1.2-9.5-2.6-14.1c-0.7-2.3-1.6-4.5-2.7-6.6c-3.3-6-8.5-8.8-15.3-9.2c-1.3-0.1-2.6,0-3.8-0.1c-1.1-0.1-1.7-0.8-2-1.8
	c-0.2-1,0.5-2.3,1.6-2.6c0.5-0.1,0.9-0.2,1.4-0.3c0.6-0.1,1.3-0.1,1.9-0.2c7.9-1.4,12.8-6.2,14.8-13.9c0.4-1.7,0.9-3.4,1-5.2
	c0.2-2.9,0-5.7,0-8.6C460.3,386.8,460.3,386.8,460.3,386.8z M464.6,402.1c-0.2,0.2-0.6,0.3-0.7,0.5c-0.7,1.6-1.3,3.2-2.1,4.8
	c-1.5,3.1-3.6,5.6-6.3,7.7c-1.1,0.9-1,1.4,0.2,2.1c3.1,1.7,5.7,4,7.7,7c0.8,1.2,1.5,2.5,2.2,3.7c0.2,0.3,0.6,0.7,0.6,0.6
	c0.4-0.2,0.8-0.5,0.9-0.8c0.8-1.7,1.5-3.5,2.3-5.2c1.4-2.9,3.7-5.1,6.1-7.2c0.6-0.5,0.6-1.1-0.2-1.5c-3-1.6-5.6-3.7-7.6-6.4
	c-1-1.4-1.8-3-2.8-4.5C465.1,402.5,464.9,402.3,464.6,402.1z"/>
<path fill="#53456A" d="M1895.9,882.1c1.3,0,2.3,0.7,2.5,2c0.4,2.2,0.6,4.4,0.9,6.6c0.4,3.3,1.1,6.6,2.1,9.8
	c0.7,2.3,1.7,4.5,2.8,6.6c3.1,5.6,8,8.6,14.4,8.8c1.4,0,2.9,0,4.3,0.1c1.2,0.1,2.1,1.1,2.2,2.1c0.1,1.1-0.6,2.1-1.9,2.4
	c-1.4,0.3-2.8,0.5-4.2,0.8c-6.3,1.4-10.6,5.1-12.8,11.1c-1.3,3.5-2,7.1-2,10.8c-0.1,3.4,0,6.7,0,10.1c0,1.1,0.1,2.2,0,3.3
	c-0.1,1-0.8,1.7-1.8,1.9c-1.1,0.2-1.9-0.4-2.3-1.3c-0.4-0.8-0.5-1.8-0.6-2.8c-0.4-4-1-7.9-1.9-11.8c-0.6-2.5-1.4-4.9-2.5-7.2
	c-3.2-6.9-8.5-10.6-16.1-10.9c-1.3-0.1-2.6,0-3.8-0.1c-1.1-0.1-1.7-0.7-2-1.8c-0.2-1.1,0.5-2.3,1.5-2.7c0.6-0.2,1.2-0.2,1.9-0.4
	c1.1-0.2,2.2-0.4,3.3-0.6c6.1-1.5,10.1-5.3,12.2-11.1c0.9-2.6,1.5-5.2,1.7-7.9c0.3-4.1,0.3-8.3,0.1-12.5c-0.1-1.3-0.1-2.6,0.1-3.8
	C1894.1,882.7,1895,882.2,1895.9,882.1z M1900.1,933.4c0.7-0.2,0.9-0.9,1.1-1.5c1.4-4.5,3.9-8.3,7.6-11.3c1.2-1,1.2-1.5-0.4-2.4
	c-4-2.3-7-5.5-9-9.6c-0.2-0.4-0.5-0.8-0.8-1.2c-0.2-0.2-0.5-0.5-0.7-0.5c-0.2,0.1-0.5,0.4-0.6,0.7c-1.7,4.9-4.1,9.3-8.3,12.5
	c-0.8,0.6-0.7,1.4,0.1,1.8c4.6,2.3,7.7,6,10,10.5c0.1,0.3,0.4,0.5,0.6,0.7C1899.8,933.4,1900,933.4,1900.1,933.4z"/>
<path fill="#EDCFE4" d="M419.5,664.3c1,0,2,0.4,2.2,1.4c0.4,2,0.7,4.1,1,6.1c0.5,4.5,1.4,8.8,2.9,13.1c0.9,2.4,2,4.7,3.6,6.7
	c2.9,3.8,6.6,5.9,11.3,6.4c1.9,0.2,3.8,0.1,5.7,0.2c1,0.1,1.8,0.6,2.2,1.6c0.5,1,0,2.4-1.1,2.8c-1.4,0.4-2.8,0.7-4.2,0.9
	c-6.9,1.3-11.5,5.3-13.7,12c-1.2,3.7-1.8,7.4-1.9,11.3c0,3.2,0.1,6.4,0.1,9.6c0,1,0,1.9-0.1,2.8c-0.1,0.8-0.8,1.4-1.6,1.6
	c-1,0.2-1.9-0.2-2.4-1.1c-0.6-1-0.6-2.1-0.7-3.2c-0.3-4.2-1-8.2-2.1-12.3c-0.7-2.9-1.8-5.8-3.3-8.4c-2.9-5-7.1-8.1-13-8.6
	c-1.7-0.2-3.5-0.2-5.3-0.3c-1.7-0.1-2.6-0.9-2.6-2.2c0-1.3,0.8-2.2,2.4-2.5c0.8-0.2,1.6-0.2,2.4-0.3c7.7-1.3,12.6-5.8,14.7-13.3
	c1.4-5.3,1.7-10.7,1.4-16.2c-0.1-1.9-0.2-3.8-0.2-5.7C417.4,665.3,418.4,664.4,419.5,664.3z M433.2,701.8c0-0.6-0.4-0.8-0.8-1.1
	c-2.7-1.5-5.1-3.3-6.9-5.8c-1.3-1.8-2.5-3.6-3.7-5.5c-2,1.5-1.8,4.1-3.1,6.1c-1.6,2.6-3.5,4.9-5.9,6.9c-1.1,0.9-1,1.5,0.2,2.1
	c3.4,1.9,6.2,4.5,8.3,7.8c0.6,0.9,1.1,1.9,1.7,2.9c0.4,0.6,1.3,0.6,1.5-0.1c1.7-4.9,4.1-9.3,8.4-12.5
	C433,702.4,433.1,702,433.2,701.8z"/>
<path fill="#B2ACBF" d="M1728.1,334c1.1,0,1.9,0.4,2.2,1.5c0.4,1.7,0.7,3.4,0.8,5.2c0.4,3.8,1.1,7.6,2.2,11.3
	c0.7,2.5,1.6,4.8,2.9,7.1c3.2,5.5,7.9,8.6,14.4,8.8c1.4,0,2.9,0,4.3,0.1c1.2,0.1,2.1,1,2.3,2.1c0.1,1.1-0.6,2.1-1.8,2.5
	c-1.4,0.4-2.8,0.5-4.2,0.8c-6.5,1.4-10.8,5.3-13,11.5c-1.3,3.6-1.9,7.4-2,11.3c-0.1,3.2,0.1,6.4,0.1,9.6c0,1,0.1,1.9,0,2.9
	c-0.1,1-0.8,1.7-1.8,2c-1.1,0.2-2.3-0.5-2.6-1.7c-0.3-1.1-0.4-2.2-0.5-3.3c-0.3-4-1-7.9-2.1-11.8c-0.5-2-1.2-4-2-5.9
	c-3.2-7.3-8.7-11.2-16.7-11.4c-1.3,0-2.5,0-3.8-0.2c-0.9-0.1-1.4-0.8-1.5-1.6c-0.2-1,0.1-1.9,1.1-2.4c0.6-0.3,1.2-0.4,1.8-0.6
	c0.8-0.2,1.6-0.2,2.4-0.3c7.5-1.5,12.1-6,14.1-13.3c1-3.7,1.4-7.5,1.4-11.4c0-2.7-0.2-5.4-0.3-8.1c0-0.9-0.1-1.9,0.1-2.8
	C1726.2,334.6,1727.1,334.1,1728.1,334z M1732.1,385.3c0.6,0,0.9-0.4,1-0.9c0.8-2.4,1.9-4.7,3.2-6.9c1.4-2.4,3.8-3.8,5.3-6
	c-1.7-2.4-4.6-3.2-6.5-5.4c-1.6-2-3-4.1-4.3-6.3c-0.2-0.4-0.7-0.5-1.1-0.8c-0.2,0.3-0.4,0.5-0.5,0.8c-1.6,5-4.2,9.3-8.4,12.5
	c-0.8,0.6-0.7,1.2,0.4,1.8c4.4,2.3,7.5,5.9,9.7,10.2c0.1,0.3,0.4,0.5,0.6,0.7C1731.8,385.2,1732,385.2,1732.1,385.3z"/>
<path fill="#B2ACBF" d="M592.1,942.4c0.8,0,1.6,0.6,1.8,1.6c0.3,1.2,0.5,2.5,0.6,3.8c0.3,3.8,1,7.6,2,11.3c0.5,2,1.2,4,2,5.9
	c3.2,7.5,8.9,11.5,17.2,11.4c1.1,0,2.2,0,3.3,0.2c1.1,0.2,1.6,1,1.7,2.1c0,1-0.4,1.9-1.5,2.2c-1.4,0.4-2.8,0.6-4.2,0.9
	c-7.4,1.4-11.8,6-13.7,13.1c-1.5,5.6-1.9,11.3-1.5,17.1c0.1,1.6,0.3,3.2,0.3,4.8c0,1.2-1,2.1-2.1,2.3c-1.1,0.1-2.2-0.6-2.4-1.8
	c-0.3-1.7-0.6-3.5-0.8-5.2c-0.5-4.5-1.3-8.8-2.9-13.1c-0.6-1.6-1.3-3.3-2.1-4.8c-3.2-5.8-8.2-8.8-14.8-9.1c-1.4-0.1-2.9,0-4.3-0.1
	c-1-0.1-1.7-0.8-1.9-1.8c-0.2-1.2,0.4-2.3,1.6-2.6c1.4-0.3,2.8-0.5,4.2-0.8c7.1-1.4,11.5-5.8,13.5-12.7c1.8-6.1,1.8-12.3,1.5-18.5
	c-0.1-1.3-0.2-2.5-0.2-3.8C589.6,943.3,590.6,942.4,592.1,942.4z M605.5,979.8c-0.2-0.2-0.3-0.5-0.5-0.7c-1.4-1-2.9-1.9-4.3-3
	c-2.7-2.1-4.5-4.9-6-7.9c-0.2-0.4-0.6-0.8-1.1-0.6c-0.3,0.1-0.5,0.4-0.6,0.7c-0.2,0.3-0.2,0.6-0.3,0.9c-1.5,4.5-4,8.3-7.7,11.2
	c-1.1,0.9-1,1.5,0.2,2.1c5,2.4,7.6,7,10.6,11.2c0.1,0.1,0.4,0.1,0.4,0.1c1.9-4.7,3.9-9.4,8.2-12.6c0.4-0.3,0.7-0.7,1-1
	C605.4,980.1,605.4,979.9,605.5,979.8z"/>
<path fill="#EDCFE4" d="M2022.7,623c-0.1,0.8-0.5,1.6-1.3,1.8c-1.2,0.4-2.5,0.6-3.7,0.9c-6.3,1.2-10.2,4.9-12,11
	c-1.5,5.1-1.7,10.4-1.4,15.7c0.1,1.3,0.2,2.5,0.2,3.8c0,1.3-0.9,2.2-2,2.3c-1.2,0.1-2.2-0.5-2.5-1.7c-0.3-1.2-0.4-2.5-0.6-3.8
	c-0.4-4.1-1.2-8.2-2.5-12.2c-0.7-2-1.5-3.9-2.7-5.6c-2.7-4-6.4-6.1-11.2-6.5c-1.3-0.1-2.6,0-3.8-0.1c-1.7-0.1-2.6-0.8-2.8-2.1
	c-0.2-1.3,0.6-2.2,2.2-2.6c1.1-0.3,2.2-0.4,3.3-0.7c6.1-1.2,9.8-5.1,11.6-10.9c1.3-4.2,1.4-8.5,1.4-12.8c0-1.9-0.2-3.8-0.2-5.7
	c0-0.6,0-1.3,0.2-1.9c0.3-0.8,0.9-1.3,1.8-1.4c1.1-0.1,1.9,0.4,2.3,1.3c0.3,0.7,0.3,1.5,0.5,2.3c0.6,3.5,1.1,6.9,1.7,10.4
	c0.5,2.5,1.4,4.9,2.5,7.2c2.8,5.4,7.1,8.5,13.3,8.5c1.3,0,2.6,0,3.8,0.2C2021.9,620.7,2022.8,622,2022.7,623z M2008.1,624.1
	c-0.1-0.3-0.1-0.7-0.3-0.8c-3.7-2.2-6.4-5.2-8.5-8.9c-0.5-0.8-1.1-0.3-1.3,0.3c-1.5,3.8-3.5,7.1-6.7,9.8c-0.6,0.5-0.7,1.1,0,1.5
	c3.7,2.1,6.3,5.4,8.6,8.9c0.1,0.2,0.8,0.3,0.8,0.2c1.8-3.8,3.5-7.5,6.9-10.2C2007.8,624.7,2007.9,624.3,2008.1,624.1z"/>
<path fill="#53456A" d="M950.7,847.8c0,0.9-0.5,1.6-1.3,1.9c-0.9,0.4-1.8,0.5-2.8,0.7c-4.3,0.9-6.5,3.6-7.5,7.7c-0.7,3-0.7,6-0.7,9
	c0,1.1,0,2.2-0.2,3.3c-0.1,0.8-0.9,1.3-1.7,1.4c-0.8,0.1-1.6-0.2-2.1-0.9c-0.7-1-0.7-2.1-0.8-3.2c-0.4-2.4-0.7-4.7-1.3-7
	c-0.5-2-1.4-3.9-2.8-5.5c-1.4-1.6-3.2-2.6-5.4-2.8c-1.1-0.1-2.2-0.1-3.3-0.2c-1.2-0.1-2.1-1-2.3-2.1c-0.2-1,0.6-2.1,1.8-2.5
	c1.1-0.3,2.2-0.5,3.2-0.8c3.2-0.9,5.1-3,6.2-6.1c1-2.9,1.1-5.9,1-9c0-1.4-0.1-2.9,0-4.3c0.1-1,0.8-1.7,1.9-1.9
	c1.1-0.2,2.3,0.5,2.5,1.7c0.4,2.2,0.7,4.4,1.1,6.6c0.4,2.2,1,4.3,2.1,6.3c1.5,2.8,3.8,4.6,7.2,4.9c1.3,0.1,2.5,0.2,3.8,0.5
	C950.3,845.8,950.8,846.7,950.7,847.8z M934.1,844.1c-0.1,0.1-0.3,0.2-0.4,0.3c-0.9,1.3-1.9,2.6-2.8,3.9c-0.3,0.4-0.5,0.9,0,1.3
	c1.4,1.2,2.4,2.9,4.2,3.8c1-1.2,2-2.5,2.9-3.7c0.6-0.7,0.7-1.4,0-2.1c-1-1-2-2-3.1-3C934.8,844.3,934.4,844.2,934.1,844.1z"/>
<path fill="#B2ACBF" d="M1063.2,379c-1.3,0-2.2-0.5-2.5-1.4c-0.3-0.7-0.3-1.6-0.4-2.3c-0.4-2.8-0.8-5.7-1.8-8.4
	c-1.6-4.5-4.4-7.3-9.4-7.4c-0.8,0-1.6,0-2.4-0.2c-1-0.2-1.7-0.9-1.7-2c0-1.1,0.5-1.9,1.4-2.2c0.7-0.3,1.5-0.5,2.3-0.6
	c4.5-0.8,6.9-3.7,7.8-8c0.5-2.7,0.9-5.3,0.6-8.1c-0.1-1-0.2-1.9-0.2-2.9c0-1.5,0.9-2.6,2.2-2.6c1.3-0.1,2.2,0.8,2.5,2.4
	c0.2,1.1,0.3,2.2,0.4,3.3c0.3,2.5,0.9,5,1.8,7.4c1.7,4.1,4.5,6.5,9.1,6.5c0.8,0,1.6,0,2.4,0.2c1,0.3,1.6,1.1,1.7,2.1
	c0.1,1-0.5,1.9-1.5,2.2c-1,0.4-2.2,0.6-3.2,0.8c-3.4,0.8-5.4,3.1-6.5,6.4c-0.9,2.8-0.9,5.6-0.9,8.5c0,1.6,0,3.2-0.1,4.8
	C1064.8,378.4,1063.8,378.8,1063.2,379z M1061.4,360.5c0.3-0.1,0.6-0.2,0.7-0.4c0.8-1.1,1.6-2.3,2.4-3.5c0.6-0.8,0.5-1.5-0.2-2
	c-1.4-0.9-2-2.8-3.8-3.2c-1.1,1.3-2.2,2.7-3.1,4.1c-0.2,0.3-0.3,1-0.1,1.3c1.2,1.3,2.4,2.5,3.6,3.6
	C1061.1,360.4,1061.3,360.4,1061.4,360.5z"/>
<path fill="#53456A" d="M2284.1,661.7c0,0.8-0.5,1.4-1.3,1.7c-0.9,0.4-1.8,0.5-2.8,0.7c-4.1,0.8-6.4,3.4-7.3,7.3
	c-0.7,2.8-1,5.7-0.8,8.5c0.1,1.3,0.1,2.6,0,3.8c-0.1,1.1-0.8,1.7-1.9,1.8c-1.1,0.1-2-0.3-2.3-1.3c-0.4-1-0.5-2.2-0.6-3.3
	c-0.2-2.6-0.8-5-1.6-7.5c-1.6-4.7-4.5-7.7-9.8-7.6c-0.8,0-1.6,0-2.3-0.3c-0.9-0.4-1.5-1.2-1.4-2.3c0.1-0.8,0.5-1.6,1.3-1.8
	c1-0.4,2.1-0.6,3.2-0.8c3.6-0.9,5.7-3.2,6.8-6.7c0.8-2.6,0.9-5.3,0.9-8.1c0-1.4-0.1-2.9-0.1-4.3c0.1-1.3,0.8-2.2,1.9-2.3
	c1.3-0.2,2.4,0.7,2.6,2.2c0.4,2.2,0.7,4.4,1,6.6c0.3,1.9,0.9,3.7,1.8,5.4c1.5,3.1,3.9,5,7.4,5.3c1.1,0.1,2.2,0.1,3.3,0.3
	C2283.5,659.4,2284.3,660.5,2284.1,661.7z M2267.7,657.9c-0.2,0.2-0.6,0.3-0.7,0.5c-0.8,1.1-1.6,2.3-2.5,3.5c-0.6,0.8-0.4,1.5,0.3,2
	c1.4,0.9,2,2.8,3.8,3.3c1-1.4,2.1-2.7,3.1-4.1c0.2-0.3,0.3-1,0.1-1.3c-1.1-1.3-2.4-2.5-3.6-3.7C2268.1,658,2267.9,658,2267.7,657.9z
	"/>
<path fill="#53456A" d="M1670.1,563.3c0-2.4-0.1-4,0-5.6c0.1-1,0.7-1.7,1.8-1.9c1.2-0.2,2.3,0.4,2.6,1.6c0.4,1.9,0.7,3.8,0.9,5.7
	c0.3,2.2,0.9,4.4,1.8,6.4c1.6,3.5,4.1,5.6,8.1,5.7c0.8,0,1.6,0,2.4,0.1c1.3,0.2,2.1,1,2.3,2.1c0.2,1.1-0.5,2.1-1.8,2.5
	c-0.8,0.2-1.5,0.4-2.3,0.6c-4.4,0.8-6.6,3.8-7.4,7.8c-0.5,2.7-0.9,5.4-0.6,8.1c0.1,1.1,0.2,2.2,0.1,3.3c-0.1,1.2-1,2.1-2.2,2.2
	c-1.2,0.1-2.1-0.5-2.4-1.9c-0.3-1.4-0.5-2.8-0.7-4.3c-0.3-2.6-0.9-5-2-7.4c-1.6-3.7-4.2-5.9-8.4-6c-1,0-1.9,0-2.8-0.3
	c-1-0.3-1.6-1.1-1.6-2.1c0-1,0.4-1.9,1.5-2.2c1.1-0.3,2.2-0.6,3.3-0.8c3-0.7,5-2.7,6.1-5.6C1670.1,568.6,1670.1,565.5,1670.1,563.3z
	 M1674.2,583.5c0.3-0.2,0.6-0.2,0.8-0.5c1-1.5,2-3.1,3-4.7c-1.1-1.1-2.2-2.3-3.3-3.4c-0.9-1-1.4-0.9-2.2,0.2
	c-0.6,0.9-1.2,1.8-1.9,2.7c-0.7,0.9-0.9,1.6,0.1,2.4c0.9,0.8,1.8,1.8,2.7,2.7C1673.7,583.1,1674,583.3,1674.2,583.5z"/>
<path fill="#53456A" d="M826,377.2c0-1.9-0.1-3.4,0-4.8c0.1-1,0.7-1.7,1.9-1.8c1.1-0.1,2,0.3,2.3,1.3c0.3,0.9,0.4,1.9,0.5,2.8
	c0.3,2.9,0.8,5.7,1.9,8.4c1.6,4.3,4.3,7.1,9.2,7c0.8,0,1.6,0,2.4,0.3c1,0.3,1.7,1,1.8,2c0.1,1.1-0.5,1.9-1.4,2.2
	c-0.9,0.3-1.8,0.5-2.8,0.7c-3.9,0.8-6.1,3.3-7.1,7c-0.8,2.8-1,5.7-0.9,8.6c0,1.4,0,2.9-0.1,4.3c-0.1,0.9-0.7,1.4-1.6,1.5
	c-1,0.2-2-0.1-2.4-1.1c-0.4-0.9-0.5-1.8-0.6-2.8c-0.3-2.9-0.8-5.7-1.8-8.4c-1.6-4.5-4.5-7.3-9.6-7.2c-0.8,0-1.6,0-2.3-0.3
	c-0.9-0.3-1.6-1.1-1.5-2.2c0-0.9,0.4-1.6,1.2-1.9c1-0.4,2.1-0.7,3.2-0.9c3.7-0.8,5.8-3.2,6.8-6.7C825.9,382.4,826.2,379.6,826,377.2
	z M833.8,393.2c-0.1-0.1-0.1-0.3-0.2-0.4c-1.2-1.2-2.4-2.5-3.7-3.6c-0.4-0.4-0.9-0.1-1.1,0.3c-0.8,1.1-1.6,2.3-2.5,3.4
	c-0.6,0.8-0.5,1.5,0.2,2c1.4,1,2.1,2.7,3.8,3.3c1-1.4,2.1-2.7,3.1-4.1C833.7,393.8,833.7,393.5,833.8,393.2z"/>
<path fill="#53456A" d="M1479.7,169.9c0-1.8-0.1-3.3,0-4.7c0.1-1,0.9-1.7,2-1.7c0.9-0.1,1.5,0.4,2,1.1c0.7,1,0.7,2.1,0.8,3.2
	c0.2,2.7,0.8,5.4,1.7,7.9c1.6,4.7,4.6,7.5,9.9,7.5c0.6,0,1.3,0,1.9,0.2c1,0.3,1.6,1,1.7,2c0.1,1.1-0.5,1.9-1.4,2.2
	c-0.7,0.3-1.5,0.4-2.3,0.5c-4.4,0.9-6.9,3.7-7.8,8c-0.6,2.7-0.6,5.4-0.6,8.1c0,1.3,0.1,2.6-0.1,3.8c-0.1,1-0.9,1.7-2,1.7
	c-1.1,0.1-1.9-0.5-2.2-1.4c-0.3-0.9-0.4-1.9-0.5-2.8c-0.4-2.9-0.9-5.7-1.9-8.4c-1.6-4.3-4.5-6.9-9.2-7.1c-0.8,0-1.6,0-2.4-0.2
	c-1-0.2-1.7-0.9-1.7-2c-0.1-1.1,0.5-1.9,1.4-2.2c0.7-0.3,1.5-0.4,2.3-0.5c4.4-0.9,6.9-3.7,7.8-8
	C1479.6,174.6,1479.8,172.1,1479.7,169.9z M1487.6,186.6c-0.1-0.3-0.2-0.7-0.4-0.8c-1.5-1.1-2.3-3-4.1-3.7c-0.9,1.3-1.9,2.6-2.8,3.8
	c-0.8,1-0.5,1.7,0.3,2.4c0.9,0.9,1.8,1.8,2.7,2.7c0.5,0.5,1,0.7,1.5,0c0.8-1.2,1.6-2.3,2.5-3.5
	C1487.3,187.1,1487.4,186.8,1487.6,186.6z"/>
<path fill="#EDCFE4" d="M2484.5,923.4c0,1.1-0.4,1.9-1.4,2.3c-0.9,0.4-1.8,0.5-2.8,0.7c-3.8,0.9-6.1,3.2-7.2,6.9
	c-0.8,2.7-0.8,5.4-0.8,8.1c0,1.3,0.1,2.6,0.1,3.8c0,1.6-0.8,2.7-2,2.8c-1.3,0.2-2.4-0.9-2.7-2.7c-0.3-2-0.5-4.1-1-6.1
	c-0.4-1.9-1-3.7-1.8-5.4c-1.5-3.3-4.2-5.1-7.9-5.4c-1-0.1-1.9,0-2.9-0.2c-1-0.2-1.7-0.9-1.8-1.9c-0.1-1.1,0.3-1.9,1.3-2.3
	c0.9-0.3,1.8-0.5,2.8-0.7c4.2-1,6.6-3.7,7.4-7.9c0.5-2.8,0.9-5.7,0.6-8.6c-0.1-1.1-0.2-2.2,0-3.3c0.1-1,0.9-1.7,1.9-1.8
	c1.1-0.1,1.9,0.4,2.3,1.4c0.4,1,0.6,2.2,0.7,3.3c0.2,2.4,0.7,4.7,1.4,7c1.5,4.9,4.5,8,9.9,8.1c0.8,0,1.6,0.1,2.4,0.3
	C2483.9,921.8,2484.3,922.6,2484.5,923.4z M2468.2,920c-0.3,0.2-0.6,0.3-0.8,0.5c-3.6,4.4-3.6,4.5,0.3,8.2c1,1,1.3,0.9,2.2-0.3
	c0.5-0.6,0.9-1.3,1.3-2c1.4-2.1,1.4-2.1-0.3-3.8c-0.7-0.7-1.3-1.4-2-2.1C2468.7,920.4,2468.4,920.2,2468.2,920z"/>
<path fill="#B2ACBF" d="M266.7,766.7c6.4,0,11.2,4.8,11.2,11.2c0,6.4-4.9,11.2-11.3,11.1c-6.2-0.1-10.9-4.8-11-11
	C255.6,771.7,260.3,766.8,266.7,766.7z M273.1,777.7c-0.1-3.5-3.1-6.2-6.7-6.1c-3.5,0.2-6.2,3.2-5.9,6.8c0.2,3.3,3.1,5.9,6.4,5.9
	C270.4,784.2,273.3,781.1,273.1,777.7z"/>
<path fill="#53456A" d="M2356.1,541.7c-0.4-6,4.6-11.1,10.6-11.1c6.1,0,11.2,4.6,11.1,10.7c0,6.1-4.2,11-10.7,11.1
	C2359.7,552.5,2355.8,546.4,2356.1,541.7z M2372.9,541.3c-0.1-3.4-2.9-6-6.3-5.8c-3.4,0.1-5.9,3-5.7,6.4c0.2,3.2,2.7,5.6,6,5.6
	C2370.4,547.4,2373,544.7,2372.9,541.3z"/>
<path fill="#B2ACBF" d="M2043.7,940.7c6.1,0,11,4.8,11,10.9c0,6-5,11-11,11c-6,0-10.9-4.9-10.9-11
	C2032.8,945.5,2037.6,940.7,2043.7,940.7z M2043.9,945.5c-3.2-0.1-6.2,2.6-6.3,5.8c-0.1,3.2,2.6,6.1,5.9,6.3
	c3.2,0.1,6.2-2.6,6.3-5.8C2050,948.6,2047.1,945.6,2043.9,945.5z"/>
<path fill="#EDCFE4" d="M1839,717.1c0,6.2-4.7,10.9-10.9,10.8c-6.1,0-10.9-4.9-10.9-10.9c0-6.1,4.9-10.8,11-10.8
	C1834.4,706.2,1839,710.9,1839,717.1z M1834.2,716.9c-0.1-3.4-2.9-5.9-6.3-5.8c-3.2,0.1-5.6,2.7-5.7,5.9c0,3.4,2.6,6.1,6.1,6
	C1831.7,723,1834.3,720.3,1834.2,716.9z"/>
<path fill="#53456A" d="M824.5,955.2c-6.1,0.3-11.1-5-11-10.7c0.1-6.1,4.7-11,10.7-11.1c5.9-0.1,11,4.9,11.1,10.8
	C835.4,950.2,830.5,955.2,824.5,955.2z M830.3,944.2c-0.1-3.4-2.9-6-6.3-5.9c-3.2,0.1-5.7,2.8-5.8,5.9c-0.1,3.4,2.7,6.1,6,6.1
	C827.7,950.4,830.4,947.6,830.3,944.2z"/>
<path fill="#EDCFE4" d="M1020.2,1266c-0.1,6.1-5,10.8-11.1,10.7c-6-0.1-10.9-5.1-10.7-11.1c0.1-6,5.2-10.9,11.2-10.7
	C1015.6,1255,1020.3,1259.9,1020.2,1266z M1015.4,1265.7c-0.1-3.3-2.9-6-6.1-6c-3.3,0.1-5.9,2.9-5.9,6.2c0.1,3.3,2.9,6,6.1,6
	C1012.7,1271.8,1015.4,1269,1015.4,1265.7z"/>
<path fill="#53456A" d="M1054.9,486.8c-7.1,0.2-11-6.1-10.9-10.9c0.2-6,5-10.9,11-10.9c6,0,10.9,5,10.9,11
	C1065.9,482.2,1061.1,486.9,1054.9,486.8z M1055,482c3.3,0,6.1-2.8,6.1-6c0-3.3-2.8-6-6.1-6c-3.3,0-6.1,2.8-6.1,6
	C1048.9,479.3,1051.7,482,1055,482z"/>
<path fill="#B2ACBF" d="M1832.8,494.5c-5.7,0.1-10.1-4.2-10.2-9.8c0-5.6,4.4-10.1,10-10c5.4,0,9.8,4.3,9.9,9.7
	C1842.7,490,1838.5,494.4,1832.8,494.5z M1837.7,484.5c-0.1-2.8-2.5-5-5.4-4.9c-2.7,0.1-4.8,2.3-4.9,4.9c-0.1,2.7,2.3,5.2,5.1,5.2
	C1835.4,489.7,1837.8,487.3,1837.7,484.5z"/>
<path fill="#53456A" d="M1949.8,1098.3c3.8-0.1,7,3,7.1,6.8c0.1,3.8-3,7-6.8,7.1c-3.7,0.1-7-3.1-7.1-6.9
	C1942.8,1101.6,1946,1098.3,1949.8,1098.3z M1949.8,1103.3c-1,0.1-1.9,1.2-1.7,2.3c0.1,0.9,1,1.6,2,1.5c1-0.1,1.8-0.8,1.8-1.8
	C1951.9,1104.2,1950.8,1103.2,1949.8,1103.3z"/>
<path fill="#53456A" d="M710.3,361.2c3.8,0.1,6.9,3.3,6.8,7.2c-0.1,3.8-3.3,6.9-7.1,6.8c-3.8-0.1-6.9-3.3-6.8-7.1
	C703.3,364.3,706.6,361.1,710.3,361.2z M710.4,370.2c1.1-0.1,1.8-1.3,1.6-2.5c-0.2-0.9-1.1-1.6-2.1-1.4c-0.9,0.2-1.8,1.1-1.7,1.9
	C708.2,369.3,709.4,370.3,710.4,370.2z"/>
<path fill="#B2ACBF" d="M1969,462c0,3.8-3.3,7-7,7c-3.8,0-6.9-3.2-6.9-7c0-3.9,3.1-6.9,6.9-6.9C1965.8,455.1,1969,458.3,1969,462z
	 M1962.1,463.9c1-0.1,1.7-0.8,1.7-1.8c0-1.2-1-2.2-2.1-1.9c-1,0.2-1.6,0.8-1.7,1.9C1959.9,463,1961,464,1962.1,463.9z"/>
<path fill="#53456A" d="M719.5,829.2c-0.1,3.9-3.2,6.9-7.1,6.8c-3.9-0.1-6.9-3.4-6.7-7.3c0.2-3.7,3.2-6.6,6.9-6.6
	C716.5,822.2,719.6,825.3,719.5,829.2z M712.5,831.1c1.1,0,2.1-1,2-2.1c0-0.9-0.8-1.6-1.9-1.7c-1-0.1-1.9,0.6-2,1.6
	C710.6,830,711.5,831.1,712.5,831.1z"/>
<path fill="#EDCFE4" d="M2169.7,1076.1c-3.9-0.2-6.7-3.4-6.4-7.5c0.3-3.7,3.3-6.5,7.1-6.4c3.9,0.1,6.8,3.3,6.6,7.3
	C2176.9,1073.5,2173.8,1076.3,2169.7,1076.1z M2170.2,1067.3c-1.2,0-2.1,1-2,2.1c0.1,0.9,1,1.7,1.9,1.7c1.1,0,2-1,1.9-2.1
	C2172,1068.1,2171.2,1067.3,2170.2,1067.3z"/>
<path fill="#53456A" d="M269.7,588.6c0,3.9-3.2,6.9-7.1,6.8c-4-0.1-6.9-3.2-6.7-7.2c0.1-3.7,3-6.6,6.8-6.6
	C266.6,581.6,269.7,584.6,269.7,588.6z M264.6,588.6c0-1.2-1-2.1-2.1-2c-0.9,0.1-1.7,1-1.7,1.9c0,1.1,1,2,2.1,1.9
	C263.9,590.4,264.6,589.5,264.6,588.6z"/>
<path fill="#EDCFE4" d="M954,309.3c-4,0-7-3-7-6.9c0-3.8,2.8-6.7,6.6-6.8c4-0.1,7.1,2.7,7.2,6.7C961,306.2,957.9,309.3,954,309.3z
	 M955.8,302.5c0-1-0.7-1.8-1.6-2c-1.1-0.1-2.2,0.8-2.2,1.9c0,1.1,1,2,2.1,1.9C955,304.3,955.8,303.5,955.8,302.5z"/>
<path fill="#53456A" d="M2448,679c-0.1,3.9-3.3,6.8-7.3,6.6c-3.9-0.2-6.8-3.4-6.6-7.3c0.2-3.7,3.3-6.5,7-6.4
	C2445,672,2448.1,675.2,2448,679z M2442.9,678.8c-0.1-1.2-1.1-2.1-2.1-1.9c-1,0.2-1.6,0.9-1.7,1.9c0,1,1.1,2,2.2,1.9
	C2442.2,680.6,2442.9,679.8,2442.9,678.8z"/>
<path fill="#53456A" d="M2126.1,519.6c-0.1,4-3.2,6.9-7.2,6.7c-4-0.1-6.8-3.3-6.6-7.3c0.2-3.7,3.1-6.5,6.9-6.5
	C2123.3,512.6,2126.2,515.6,2126.1,519.6z M2121.1,519.3c-0.1-1.2-1.2-2-2.2-1.8c-0.9,0.2-1.6,1.1-1.6,2c0,1.1,1.1,2,2.2,1.8
	C2120.5,521.2,2121.2,520.3,2121.1,519.3z"/>
<path fill="#53456A" d="M557,766c-3.9,0-7.1-3.2-7-7c0.1-3.7,3-6.7,6.7-6.8c3.9-0.1,7.1,2.9,7.2,6.8C564,762.9,560.9,766,557,766z
	 M556.7,761.1c1,0.1,2.1-0.8,2.2-1.9c0-0.9-0.7-1.7-1.7-1.9c-0.9-0.2-1.9,0.5-2.1,1.4C554.9,759.8,555.7,760.9,556.7,761.1z"/>
<path fill="#53456A" d="M676.6,225c-0.2,4-3.3,6.8-7.3,6.5c-3.8-0.2-6.5-3.1-6.5-6.9c0-3.9,3.1-6.9,7.1-6.8
	C673.9,217.9,676.7,220.9,676.6,225z M669.7,226.5c1,0,1.8-0.7,1.9-1.7c0.1-1.2-0.8-2.2-1.9-2.1c-1.1,0.1-1.7,0.7-1.9,1.7
	C667.6,225.6,668.6,226.5,669.7,226.5z"/>
<path fill="#53456A" d="M1915.4,339.5c0.1,3.8-3.1,7-7,7.1c-3.9,0-7-3.1-7-7c0-3.8,2.9-6.6,6.7-6.7
	C1912.1,332.7,1915.3,335.6,1915.4,339.5z M1910.3,339.8c0.1-0.9-0.6-1.9-1.5-2.1c-1.2-0.2-2.3,0.6-2.4,1.7c-0.1,1.1,1,2.2,2,2.2
	C1909.3,341.6,1910.2,340.8,1910.3,339.8z"/>
<path fill="#53456A" d="M2096.9,733.3c0.1,3.9-2.9,7-6.8,7.1c-3.9,0.1-7.1-2.9-7.2-6.7c-0.1-3.8,3-7,6.8-7
	C2093.7,726.5,2096.8,729.5,2096.9,733.3z M2090.2,731.5c-1.1-0.1-2.1,0.8-2.1,2c0,1,0.8,1.8,1.7,1.9c1,0.1,1.9-0.6,2.1-1.5
	C2092.1,732.9,2091.2,731.7,2090.2,731.5z"/>
<path fill="#B2ACBF" d="M965.1,608.6c-0.1,3.9-3.2,6.8-7.2,6.7c-3.9-0.1-7-3.4-6.8-7.2c0.2-3.7,3.3-6.5,7-6.5
	C962,601.6,965.1,604.7,965.1,608.6z M960,608.3c-0.1-1.1-1.3-1.9-2.4-1.6c-0.9,0.2-1.6,1.2-1.5,2.1c0.1,0.9,1,1.8,1.9,1.7
	C959.2,610.5,960.2,609.3,960,608.3z"/>
<path fill="#53456A" d="M2351.6,992.5c4,0.1,6.8,3.1,6.7,7.2c-0.2,4-3.3,6.7-7.3,6.5c-3.8-0.2-6.4-3-6.4-6.9
	C2344.7,995.2,2347.6,992.4,2351.6,992.5z M2351.3,1001.2c1.1,0.1,2.1-0.9,2.1-2c-0.1-1-0.8-1.7-1.8-1.8c-1.1-0.1-2.1,0.8-2,2
	C2349.6,1000.4,2350.4,1001.2,2351.3,1001.2z"/>
<path fill="#53456A" d="M1391.4,605.9c111.5,0.8,195.6,91.5,193.9,196.9c-1.7,108.3-90.8,192.2-195.7,191.2
	c-107.8-1-193.9-89.9-192.3-197C1199,693.8,1282.5,606.5,1391.4,605.9z"/>
<path fill="#89A2B0" d="M1580.3,799.8c-0.1-103.5-83.8-188.8-189.2-188.7c-103.6,0.1-188,83.8-188.6,187.9
	c-0.6,104.8,84.4,189.6,188.5,190C1492.7,989.2,1580.1,907,1580.3,799.8z"/>
<path fill="#53456A" d="M1391.1,446.4c-23.5,0.4-47.1-18.8-47-47.4c0-26.8,22-47.2,47.4-47.1c26,0.1,47.2,21.3,47.1,47.5
	C1438.4,426.2,1416.2,446.9,1391.1,446.4z"/>
<path fill="#89A2B0" d="M1391.3,357c-23.3,0-42.1,18.9-42.2,42.1c0,23.5,19,42.4,42.4,42.3c22.4-0.1,42.1-18.1,41.9-42.4
	C1433.3,374,1412.9,356.9,1391.3,357z"/>
<path fill="#53456A" d="M1423.4,1069.3c4.1,0,7.3,3.2,7.3,7.3c0,4.2-3.3,7.4-7.7,7.3c-4.1-0.1-7.1-3.5-7.1-7.5
	C1415.9,1072.3,1419.3,1069.2,1423.4,1069.3z"/>
<path fill="#53456A" d="M1462.2,1076.8c-0.4,4.4-3.6,7.2-7.5,7.1c-4.3-0.1-7.5-3.5-7.3-7.7c0.3-4,3.6-7,7.7-6.9
	C1459.3,1069.4,1462.1,1072.8,1462.2,1076.8z"/>
<path fill="#53456A" d="M1266,1083.8c-4.1,0.1-7.4-2.9-7.6-7c-0.2-3.9,3-7.4,7-7.6c4.3-0.2,7.8,3,7.8,7.2
	C1273.3,1080.5,1270.1,1083.8,1266,1083.8z"/>
<path fill="#53456A" d="M1619.5,1076.5c0,4.1-3.1,7.2-7.2,7.3c-4.9,0.2-7.7-4.1-7.5-7.5c0.1-4,3.4-7.1,7.5-7.1
	C1616.3,1069.3,1619.5,1072.5,1619.5,1076.5z"/>
<path fill="#53456A" d="M1580.6,1083.8c-4.1,0-7.3-3.3-7.3-7.3c0-4,3.2-7.3,7.3-7.3c4.3-0.1,7.7,3.3,7.5,7.5
	C1587.9,1080.8,1584.7,1083.9,1580.6,1083.8z"/>
<path fill="#53456A" d="M1304.8,1076.8c-0.3,4.2-3.6,7.2-7.5,7.1c-4.3-0.1-7.6-3.6-7.3-7.8c0.3-4,3.6-7,7.7-6.8
	C1301.7,1069.4,1304.9,1072.8,1304.8,1076.8z"/>
<path fill="#53456A" d="M1241.7,1076.7c-0.1,4.1-3.2,7.1-7.4,7.1c-4.2,0-7.2-3.1-7.3-7.2c0-4.3,3.3-7.5,7.6-7.4
	C1238.8,1069.4,1241.8,1072.6,1241.7,1076.7z"/>
<path fill="#53456A" d="M1171.5,1083.8c-4.2,0-7.3-3-7.4-7.1c-0.1-4.3,3.2-7.6,7.5-7.5c4.1,0.1,7.2,3.3,7.2,7.3
	C1178.7,1080.7,1175.6,1083.8,1171.5,1083.8z"/>
<path fill="#53456A" d="M1493.5,1076.6c0,4.1-3.1,7.2-7.3,7.2c-4.3,0-7.5-3.3-7.4-7.6c0.2-4.1,3.4-7.1,7.5-7
	C1490.5,1069.4,1493.6,1072.5,1493.5,1076.6z"/>
<path fill="#53456A" d="M1549.3,1083.8c-4.2,0-7.2-2.9-7.3-7.1c-0.1-4.4,3.1-7.6,7.5-7.5c4.1,0.1,7.2,3.3,7.2,7.4
	C1556.5,1080.7,1553.3,1083.8,1549.3,1083.8z"/>
<path fill="#53456A" d="M1392,1083.8c-4.2,0.1-7.3-2.9-7.4-7c-0.1-4.3,3.1-7.6,7.4-7.6c4.1,0,7.2,3.2,7.2,7.3
	C1399.2,1080.6,1396,1083.8,1392,1083.8z"/>
<path fill="#53456A" d="M1203.1,1069.3c4.1,0.1,7.1,3.2,7.1,7.4c-0.1,4.3-3.4,7.4-7.8,7.2c-4.1-0.2-7-3.4-6.8-7.6
	C1195.8,1072.1,1199,1069.2,1203.1,1069.3z"/>
<path fill="#53456A" d="M1336.1,1076.5c0,4.2-2.9,7.3-7.1,7.4c-4.3,0.1-7.6-3.1-7.6-7.4c0.1-4,3.3-7.2,7.4-7.2
	C1333,1069.3,1336.1,1072.3,1336.1,1076.5z"/>
<path fill="#53456A" d="M1360.1,1083.8c-4.1-0.1-7.1-3.2-7.1-7.3c0-4.1,3.1-7.2,7.2-7.2c4.3,0,7.5,3.3,7.3,7.6
	C1367.5,1081,1364.3,1083.9,1360.1,1083.8z"/>
<path fill="#53456A" d="M1517.9,1069.3c4.1,0.1,7.1,3.2,7.1,7.4c0,4.3-3.3,7.4-7.7,7.2c-4.1-0.2-7-3.4-6.9-7.6
	C1510.6,1072.2,1513.8,1069.2,1517.9,1069.3z"/>
<path fill="#53456A" d="M1282.8,484.4c0,4-3.2,7.3-7.2,7.4c-4.1,0.1-7.4-3-7.6-7c-0.2-4.1,3.3-7.7,7.5-7.6
	C1279.4,477.2,1282.8,480.4,1282.8,484.4z"/>
<path fill="#53456A" d="M1307.8,477.1c4,0,7.3,3.2,7.5,7.2c0.2,4.1-3.4,7.6-7.6,7.5c-4-0.1-7.3-3.4-7.2-7.4
	C1300.5,480.4,1303.8,477.1,1307.8,477.1z"/>
<path fill="#53456A" d="M1347.8,484.7c-0.1,4-3.4,7.2-7.5,7.1c-4.3-0.1-7.5-3.6-7.3-7.8c0.2-4,3.6-7,7.7-6.9
	C1344.8,477.3,1347.9,480.7,1347.8,484.7z"/>
<path fill="#53456A" d="M1510.4,484.6c0,4.1-3.2,7.2-7.3,7.2c-4.1,0-7.3-3.1-7.4-7.2c-0.1-4.2,3.3-7.6,7.6-7.5
	C1507.4,477.2,1510.5,480.5,1510.4,484.6z"/>
<path fill="#53456A" d="M1445.3,484.3c0.1,4.2-2.8,7.3-7,7.5c-4.3,0.2-7.6-3-7.6-7.4c0-4.1,3.2-7.2,7.2-7.3
	C1442,477.1,1445.2,480.2,1445.3,484.3z"/>
<path fill="#53456A" d="M1405.4,491.8c-4.1,0-7.2-3.2-7.2-7.3c0-4.3,3.3-7.5,7.6-7.4c4,0.1,7,3.4,7,7.5
	C1412.7,488.8,1409.6,491.8,1405.4,491.8z"/>
<path fill="#53456A" d="M1380.2,484.7c-0.1,4.1-3.3,7.1-7.4,7.1c-4.1-0.1-7.2-3.3-7.2-7.3c0-4.2,3.4-7.5,7.7-7.3
	C1377.3,477.3,1380.3,480.6,1380.2,484.7z"/>
<path fill="#53456A" d="M1470.7,477.1c4.1,0.1,7.2,3.2,7.2,7.3c0,4.3-3.3,7.5-7.6,7.3c-4.1-0.2-7.1-3.4-7-7.5
	C1463.4,480.2,1466.6,477.1,1470.7,477.1z"/>
<path fill="#53456A" d="M2217.8,824.6c-0.1-3.6,2.6-6.5,6.1-6.6c3.5-0.2,6.5,2.6,6.6,6.1c0.2,3.7-2.7,6.9-6.4,6.9
	C2220.7,831,2217.8,828.2,2217.8,824.6z M2225.5,824.7c0.1-0.7-0.6-1.7-1.4-1.6c-0.7,0-1.2,0.5-1.4,1.1c-0.1,0.7,0.2,1.2,0.9,1.5
	C2224.4,826,2225.4,825.5,2225.5,824.7z"/>
<path fill="#53456A" d="M2223.2,815c-2.9-0.1-5.1-2.4-5-5.2c0.1-2.6,2.3-4.7,5-4.8c2.8-0.1,5.2,2.2,5.2,5
	C2228.4,812.9,2226.1,815.1,2223.2,815z"/>
<path fill="#53456A" d="M2239.2,817.1c0.1,2.2-1.6,4-3.8,4.1c-2.2,0.1-4-1.6-4-3.9c0-2.2,1.6-4,3.8-4.1
	C2237.4,813.2,2239.2,814.9,2239.2,817.1z"/>
<path fill="#53456A" d="M1561.6,799.9c0.6,92-74.3,170.7-170.6,170.4c-96.4-0.3-170.2-78.9-169.9-170.7
	c0.3-93.8,76.5-170,170.2-169.9C1488.3,629.8,1562.3,709,1561.6,799.9z"/>
<path fill="#D6E9F6" d="M1384.8,699.9c13.6,0.3,27.9,1.8,42,4.7c18.4,3.8,36.2,9.5,53.1,17.8c11.4,5.6,22.1,12.3,31.5,20.8
	c7.1,6.4,13.2,13.5,17.7,21.9c6.5,12.1,8.7,24.9,6.6,38.5c-1.5,9.6-4.8,18.6-9.3,27.1c-6.4,12.1-14.8,22.8-24.3,32.6
	c-15.1,15.6-32.4,28.5-51.2,39.3c-1,0.6-1.9,1.1-2.9,1.6c-1.3,0.7-1.7,1.7-1.7,3.1c0.2,4,0.4,8,0.6,12c0.1,1,0.5,1.8,1.5,2.2
	c0.9,0.4,1.8,0.8,2.6,1.3c10,6.1,10.8,20.1,1.6,27.3c-0.9,0.7-1.9,1.2-2.8,1.8c-0.4,0.3-0.9,0.5-1.1,0.8c-0.2,0.4-0.2,0.9-0.2,1.3
	c0,0.2,0.5,0.4,0.8,0.4c0.9-0.2,1.9-0.5,2.7-0.8c5.1-2,10-4.2,14.8-6.7c50.5-26,84.1-76.2,89-131.9c1.6-18,0.5-35.8-3.8-53.4
	c-7.4-31-22.4-57.8-45.3-79.8c-37.5-36.1-82.5-51.2-134.2-46.1c-19.6,1.9-38.1,7.8-55.7,16.7c-64.9,32.8-103.1,105.4-87.2,181.3
	c10.1,47.9,37.1,84.3,79.2,109.4c5.9,3.5,12.1,6.5,18.5,9.2c1.8,0.7,2.4,0.4,2.7-1.3c1.6-10.1,3.3-20.2,4.9-30.3
	c0.7-4.4,0.9-3.8-3.1-5.7c-12-5.6-22.8-13-32-22.6c-24.8-25.9-35.6-56.8-32.2-92.5c1.9-20,9-38.2,20.7-54.5c0.9-1.3,1.8-2.7,2.9-3.8
	c1.9-1.9,2.1-4,1.6-6.5c-1.2-5.8-2.2-11.6-3.3-17.4c-0.3-1.7-0.5-3.5-1.1-5.1c-0.8-1.9-3.1-1.3-4.6-2.1c-4.4-2.2-7-6.4-6.8-11.2
	c0.2-4.8,3.2-8.9,7.8-10.5c4.5-1.6,9.5-0.3,12.7,3.3c4.4,5,4,12.4-1.3,16.6c-2.3,1.9-2.6,3.6-2.1,6.1c1,4.7,1.8,9.4,2.7,14.1
	c0.2,1.1,0.5,2.2,0.8,3.3c0.3,1,0.9,1.1,1.8,0.4c1-0.9,1.8-1.8,2.8-2.6c13.3-12.5,28.8-21.2,46.5-25.9
	C1360,700.9,1372,699.9,1384.8,699.9z"/>
<path fill="#B2ACBF" d="M1271.8,811.7c0,7.2,0.9,15.7,2.5,23c11.7,56.3,67.4,95.1,126.9,82.9c2.3-0.5,4.6-1.3,6.9-2.1
	c1.3-0.5,2.6-1.2,3.6-2.3c0.8-0.9,1-1.9,0.5-3.1c-0.9-1.9-2.4-3.4-4-4.8c-3-2.6-6.5-4.6-9.8-6.9c-27.8-19.6-42-46.6-43.2-80.5
	c-0.5-13.4,2.2-26.4,7-38.9c4.6-11.9,8.7-24,11.6-36.5c1.6-7,2.8-14.1,2.5-21.4c-0.1-2.9-0.5-5.7-1.7-8.4c-1.7-3.9-4.6-6.1-8.9-6.3
	c-2.1-0.1-4.2-0.1-6.2,0.3c-22.6,4.4-42,14.9-58,31.5c-1.9,2-2.3,3.9-1.8,6.4c3.4,17.6,6.7,35.2,10.1,52.7c0.3,1.6,0,3.4,1.2,4.6
	c1.2,1.2,3,0.8,4.6,1.1c11.7,2.1,19.5,15.3,13.8,27.5c-3.8,7.9-12.6,12.4-21.1,10.6c-9.1-1.9-15.4-9-15.7-18.1
	c-0.3-8.3,3.4-14.4,10.7-18.4c2.3-1.3,2.3-1.3,2-3.6c-0.1-0.6-0.2-1.3-0.3-1.9c-3.1-16.5-6.2-33-9.4-49.5c-0.1-0.6-0.3-1.3-0.5-1.8
	c-0.2-0.4-0.7-0.8-1.1-0.3c-0.9,0.9-1.6,1.9-2.4,3C1278.5,769.2,1272.1,789.8,1271.8,811.7z"/>
<path fill="#CED8DC" d="M1408.9,818.5c-0.2,1.9-0.3,3.8-0.7,5.7c-1.2,5.9-4.3,10.7-9,14.3c-9.2,7.1-19.4,11-31.2,9.3
	c-2-0.3-2.4,0.1-1.7,1.9c2,5.6,4.6,10.9,7.7,15.9c7.3,11.9,16.7,21.7,28.4,29.4c3.5,2.3,7,4.5,10,7.4c2.3,2.2,4.4,4.6,5,8
	c0.4,1.8,0.9,2,2.7,1.3c5.2-2.2,10.3-4.3,15.4-6.7c6.8-3.3,5.7-1.9,5.5-9.2c-0.6-15.7-1.3-31.3-1.9-47c0-0.5,0-1,0-1.4
	c0.2-1.8,0.9-2.6,2.6-2.8c2.5-0.3,5.1-0.4,7.6-0.7c11.2-1.4,21.9-4.7,31.4-10.9c11.1-7.3,18.1-17.4,21.1-30.3c0.4-1.7,0.8-3.4,1-5.2
	c0.4-2.8,0.1-3.1-2.5-3.5c-0.6-0.1-1.3-0.1-1.9-0.2c-4.9-0.8-9.7-2-14.2-4.2c-5.6-2.7-10.3-6.4-13.3-12c-0.2-0.4-0.5-0.8-0.7-1.2
	c-0.3-0.6-0.9-0.9-1.6-0.8c-1,0.1-1.9,0.2-2.9,0.3c-7.1,1.3-14.1,2.6-21.2,4c-6.9,1.4-5.5,1.2-7.3-4.1c-3.2-9.4-7.5-18.3-13.5-26.3
	c-3.1-4.1-6.6-7.8-10.8-10.8c-6.5-4.7-13.7-6.9-21.7-6.2c-3.2,0.3-6.3,1-9.3,2.3c-1.3,0.5-2,1.4-2.2,2.8c-0.3,2.2-0.8,4.4-1.4,6.6
	c-0.4,1.3-0.1,2.5,0.5,3.7c0.5,1,1,2,1.5,3c6.3,12.7,12.7,25.5,19,38.2c2.6,5.3,5.2,10.6,7,16.3
	C1407.8,809.6,1408.9,813.9,1408.9,818.5z"/>
<path fill="#EDCFE4" d="M1445.2,873.9C1445.1,873.9,1445.1,873.9,1445.2,873.9c0.2,7.5,0.6,15,0.9,22.5c0.1,2.6,0.5,2.7,2.9,1.4
	c0.6-0.3,1.1-0.6,1.7-0.9c14.8-8.7,28.6-18.8,41.2-30.5c8.8-8.2,16.8-17.2,23.5-27.1c6.1-8.9,11-18.4,13.8-28.8
	c5-18.1,2-34.8-9-50.1c-4.1-5.8-9-10.8-14.4-15.4c-9.2-7.8-19.4-14.1-30.3-19.1c-30-13.9-61.6-20.9-94.8-20.8c-1,0-1.9,0-2.9,0.1
	c-1,0.1-1.4,0.9-0.8,1.7c3.6,5.1,4.3,10.9,4.2,16.9c0,0.8,0,1.6,0,2.4c-0.2,3.7,0.5,3,3.2,2.4c14.3-3.4,26.5,0.3,37,10.4
	c2.8,2.7,5.3,5.6,7.5,8.7c4.4,6.1,7.9,12.8,10.7,19.8c0.8,1.9,1.5,3.9,2.2,5.8c0.5,1.3,1.3,1.7,2.6,1.5c0.6-0.1,1.3-0.2,1.9-0.3
	c10.5-2,21-4,31.6-6c8.6-1.6,17.3-3.3,25.9-4.9c2.1-0.4,2.5-0.1,2.9,2c2.2,11.2,2.9,22.5,1,33.9c-2.9,17.3-11.8,30.5-26.9,39.5
	c-8.9,5.3-18.7,8.2-28.9,9.7c-2.1,0.3-4.1,0.5-6.2,0.8c-0.9,0.1-1.4,0.6-1.5,1.5c0,1.3,0,2.6,0,3.8
	C1444.6,861.2,1444.9,867.6,1445.2,873.9z"/>
<path fill="#B2ACBF" d="M1381.9,938.9c0,0.1,0,0.1,0,0.2c-13.4,0-26.9,0-40.3,0c-1,0-1.9,0-2.9,0.1c-1.1,0.1-1.8,0.5-2,1.7
	c-0.5,2.8-1,5.7-1.4,8.5c-1.2,6.8-1.3,5.7,4.5,7.6c19.3,6.4,39.2,9,59.5,8c13.5-0.6,26.7-2.9,39.6-6.8c1.1-0.3,2.1-0.7,3.2-1
	c0.9-0.3,1.2-0.9,1.2-1.8c0-0.9-0.5-1.5-1.4-1.7c-0.8-0.2-1.6-0.3-2.4-0.4c-6-1.1-10-4.6-12.4-10.2c-0.3-0.7-0.6-1.5-0.8-2.3
	c-0.3-1.6-1.4-2-2.8-1.9c-1.1,0-2.2,0-3.4,0C1407.5,938.9,1394.7,938.9,1381.9,938.9z"/>
<path fill="#B2ACBF" d="M1381.7,934.1c0-0.1,0-0.1,0-0.2c12.8,0,25.6,0,38.4,0c1.3,0,2.6-0.1,3.8,0c1.5,0.1,2.4-0.6,2.9-2
	c1-3.1,2.8-5.7,5.3-7.8c2.3-1.9,4.9-3,7.8-3.5c1.4-0.2,1.9-1,1.9-2.3c-0.1-2.7-0.2-5.4-0.3-8.1c-0.1-2-0.5-2.1-2.4-1.3
	c-0.7,0.3-1.4,0.7-2.2,1c-9.7,4.6-19.6,8.5-30,11.3c-18.6,5-37.3,5.4-55.9,0.5c-2.9-0.8-5.8-1.7-8.7-2.6c-1.5-0.4-2.1-0.1-2.3,1.4
	c-0.7,3.9-1.2,7.9-1.8,11.8c-0.1,0.7,0.2,1.3,1,1.4c1.4,0.1,2.9,0.2,4.3,0.2C1356.2,934.1,1368.9,934.1,1381.7,934.1z"/>
<path fill="#D8BAD0" d="M1311.6,807.9c-7.9,0-14.3,6.5-14.3,14.4c0,7.9,6.5,14.4,14.4,14.3c9.1-0.2,14.4-7.4,14.3-14.4
	C1326,814.1,1319.6,807.9,1311.6,807.9z"/>
<path fill="#D8A852" d="M1442.8,925.3c-6.3-0.1-11.7,5.1-11.9,11.4c-0.2,6.3,5,11.7,11.3,11.9c6.7,0.2,12-4.9,12.1-11.6
	C1454.3,930.7,1449.1,925.4,1442.8,925.3z"/>
<path fill="#D8BAD0" d="M1288.3,693.1c-3.6,0.1-6.6,3.3-6.4,7c0.2,3.5,3.2,6.3,6.6,6.3c3.6,0,6.8-3.2,6.7-6.8
	C1295.2,696.1,1291.9,693,1288.3,693.1z"/>
<path fill="#53456A" d="M1391.9,362.4c20.8,0.5,36.7,17.3,36,38.2c-0.7,20.4-18,35.8-38,35.2c-19.8-0.6-35.9-17.6-35.3-37.5
	C1355.2,377.9,1371.8,361.9,1391.9,362.4z"/>
<path fill="#D6E9F6" d="M1359.7,399.2c-0.1,16.8,13.5,31.7,31.8,31.6c17.6-0.1,31.4-14,31.5-31.5c0.1-19.2-15.7-31.9-31.6-31.8
	C1373.8,367.5,1359.6,381.6,1359.7,399.2z"/>
<path fill="#53456A" d="M1423.3,777.2c0.1,4.5-3.2,8-7.6,8.2c-4.6,0.2-8.4-3.3-8.5-7.8c-0.1-4.5,3.6-8.3,8.1-8.3
	C1419.7,769.3,1423.2,772.8,1423.3,777.2z"/>
</svg>
